<?xml version="1.0" encoding="UTF-8" standalone="no"?>
<!-- Created with Inkscape (http://www.inkscape.org/) -->
<svg
   xmlns:dc="http://purl.org/dc/elements/1.1/"
   xmlns:cc="http://creativecommons.org/ns#"
   xmlns:rdf="http://www.w3.org/1999/02/22-rdf-syntax-ns#"
   xmlns:svg="http://www.w3.org/2000/svg"
   xmlns="http://www.w3.org/2000/svg"
   xmlns:sodipodi="http://sodipodi.sourceforge.net/DTD/sodipodi-0.dtd"
   xmlns:inkscape="http://www.inkscape.org/namespaces/inkscape"
   id="svg2"
   sodipodi:version="0.32"
   inkscape:version="0.46"
   width="31.539249"
   height="31.834749"
   xml:space="preserve"
   sodipodi:docname="A3ATM_Central.svg"
   version="1.0"
   inkscape:output_extension="org.inkscape.output.svg.inkscape"><metadata
     id="metadata7"><rdf:RDF><cc:Work
         rdf:about=""><dc:format>image/svg+xml</dc:format><dc:type
           rdf:resource="http://purl.org/dc/dcmitype/StillImage" /></cc:Work></rdf:RDF></metadata><defs
     id="defs5"><inkscape:perspective
       sodipodi:type="inkscape:persp3d"
       inkscape:vp_x="0 : 526.18109 : 1"
       inkscape:vp_y="0 : 1000 : 0"
       inkscape:vp_z="744.09448 : 526.18109 : 1"
       inkscape:persp3d-origin="372.04724 : 350.78739 : 1"
       id="perspective9" /><clipPath
       clipPathUnits="userSpaceOnUse"
       id="clipPath19"><path
         d="M 0,2551.181 L 2551.181,2551.181 L 2551.181,0 L 0,0 L 0,2551.181 z"
         id="path21" /></clipPath><clipPath
       clipPathUnits="userSpaceOnUse"
       id="clipPath61"><path
         d="M 0,2551.181 L 2551.181,2551.181 L 2551.181,0 L 0,0 L 0,2551.181 z"
         id="path63" /></clipPath><clipPath
       clipPathUnits="userSpaceOnUse"
       id="clipPath243"><path
         d="M 0,2551.181 L 2551.181,2551.181 L 2551.181,0 L 0,0 L 0,2551.181 z"
         id="path245" /></clipPath><clipPath
       clipPathUnits="userSpaceOnUse"
       id="clipPath313"><path
         d="M 0,2551.181 L 2551.181,2551.181 L 2551.181,0 L 0,0 L 0,2551.181 z"
         id="path315" /></clipPath><clipPath
       clipPathUnits="userSpaceOnUse"
       id="clipPath327"><path
         d="M 0,2551.181 L 2551.181,2551.181 L 2551.181,0 L 0,0 L 0,2551.181 z"
         id="path329" /></clipPath><clipPath
       clipPathUnits="userSpaceOnUse"
       id="clipPath341"><path
         d="M 0,2551.181 L 2551.181,2551.181 L 2551.181,0 L 0,0 L 0,2551.181 z"
         id="path343" /></clipPath><clipPath
       clipPathUnits="userSpaceOnUse"
       id="clipPath355"><path
         d="M 0,2551.181 L 2551.181,2551.181 L 2551.181,0 L 0,0 L 0,2551.181 z"
         id="path357" /></clipPath><clipPath
       clipPathUnits="userSpaceOnUse"
       id="clipPath369"><path
         d="M 0,2551.181 L 2551.181,2551.181 L 2551.181,0 L 0,0 L 0,2551.181 z"
         id="path371" /></clipPath><clipPath
       clipPathUnits="userSpaceOnUse"
       id="clipPath383"><path
         d="M 0,2551.181 L 2551.181,2551.181 L 2551.181,0 L 0,0 L 0,2551.181 z"
         id="path385" /></clipPath><clipPath
       clipPathUnits="userSpaceOnUse"
       id="clipPath397"><path
         d="M 0,2551.181 L 2551.181,2551.181 L 2551.181,0 L 0,0 L 0,2551.181 z"
         id="path399" /></clipPath><clipPath
       clipPathUnits="userSpaceOnUse"
       id="clipPath411"><path
         d="M 0,2551.181 L 2551.181,2551.181 L 2551.181,0 L 0,0 L 0,2551.181 z"
         id="path413" /></clipPath><clipPath
       clipPathUnits="userSpaceOnUse"
       id="clipPath425"><path
         d="M 0,2551.181 L 2551.181,2551.181 L 2551.181,0 L 0,0 L 0,2551.181 z"
         id="path427" /></clipPath><clipPath
       clipPathUnits="userSpaceOnUse"
       id="clipPath439"><path
         d="M 0,2551.181 L 2551.181,2551.181 L 2551.181,0 L 0,0 L 0,2551.181 z"
         id="path441" /></clipPath><clipPath
       clipPathUnits="userSpaceOnUse"
       id="clipPath453"><path
         d="M 0,2551.181 L 2551.181,2551.181 L 2551.181,0 L 0,0 L 0,2551.181 z"
         id="path455" /></clipPath><clipPath
       clipPathUnits="userSpaceOnUse"
       id="clipPath467"><path
         d="M 0,2551.181 L 2551.181,2551.181 L 2551.181,0 L 0,0 L 0,2551.181 z"
         id="path469" /></clipPath><clipPath
       clipPathUnits="userSpaceOnUse"
       id="clipPath481"><path
         d="M 0,2551.181 L 2551.181,2551.181 L 2551.181,0 L 0,0 L 0,2551.181 z"
         id="path483" /></clipPath><clipPath
       clipPathUnits="userSpaceOnUse"
       id="clipPath495"><path
         d="M 0,2551.181 L 2551.181,2551.181 L 2551.181,0 L 0,0 L 0,2551.181 z"
         id="path497" /></clipPath><clipPath
       clipPathUnits="userSpaceOnUse"
       id="clipPath509"><path
         d="M 0,2551.181 L 2551.181,2551.181 L 2551.181,0 L 0,0 L 0,2551.181 z"
         id="path511" /></clipPath><clipPath
       clipPathUnits="userSpaceOnUse"
       id="clipPath523"><path
         d="M 0,2551.181 L 2551.181,2551.181 L 2551.181,0 L 0,0 L 0,2551.181 z"
         id="path525" /></clipPath><clipPath
       clipPathUnits="userSpaceOnUse"
       id="clipPath537"><path
         d="M 0,2551.181 L 2551.181,2551.181 L 2551.181,0 L 0,0 L 0,2551.181 z"
         id="path539" /></clipPath><clipPath
       clipPathUnits="userSpaceOnUse"
       id="clipPath551"><path
         d="M 0,2551.181 L 2551.181,2551.181 L 2551.181,0 L 0,0 L 0,2551.181 z"
         id="path553" /></clipPath><clipPath
       clipPathUnits="userSpaceOnUse"
       id="clipPath565"><path
         d="M 0,2551.181 L 2551.181,2551.181 L 2551.181,0 L 0,0 L 0,2551.181 z"
         id="path567" /></clipPath><clipPath
       clipPathUnits="userSpaceOnUse"
       id="clipPath579"><path
         d="M 0,2551.181 L 2551.181,2551.181 L 2551.181,0 L 0,0 L 0,2551.181 z"
         id="path581" /></clipPath><clipPath
       clipPathUnits="userSpaceOnUse"
       id="clipPath593"><path
         d="M 0,2551.181 L 2551.181,2551.181 L 2551.181,0 L 0,0 L 0,2551.181 z"
         id="path595" /></clipPath><clipPath
       clipPathUnits="userSpaceOnUse"
       id="clipPath607"><path
         d="M 0,2551.181 L 2551.181,2551.181 L 2551.181,0 L 0,0 L 0,2551.181 z"
         id="path609" /></clipPath><clipPath
       clipPathUnits="userSpaceOnUse"
       id="clipPath621"><path
         d="M 0,2551.181 L 2551.181,2551.181 L 2551.181,0 L 0,0 L 0,2551.181 z"
         id="path623" /></clipPath><clipPath
       clipPathUnits="userSpaceOnUse"
       id="clipPath635"><path
         d="M 0,2551.181 L 2551.181,2551.181 L 2551.181,0 L 0,0 L 0,2551.181 z"
         id="path637" /></clipPath><clipPath
       clipPathUnits="userSpaceOnUse"
       id="clipPath649"><path
         d="M 0,2551.181 L 2551.181,2551.181 L 2551.181,0 L 0,0 L 0,2551.181 z"
         id="path651" /></clipPath><clipPath
       clipPathUnits="userSpaceOnUse"
       id="clipPath663"><path
         d="M 0,2551.181 L 2551.181,2551.181 L 2551.181,0 L 0,0 L 0,2551.181 z"
         id="path665" /></clipPath><clipPath
       clipPathUnits="userSpaceOnUse"
       id="clipPath677"><path
         d="M 0,2551.181 L 2551.181,2551.181 L 2551.181,0 L 0,0 L 0,2551.181 z"
         id="path679" /></clipPath><clipPath
       clipPathUnits="userSpaceOnUse"
       id="clipPath693"><path
         d="M 0,2551.181 L 2551.181,2551.181 L 2551.181,0 L 0,0 L 0,2551.181 z"
         id="path695" /></clipPath><clipPath
       clipPathUnits="userSpaceOnUse"
       id="clipPath707"><path
         d="M 0,2551.181 L 2551.181,2551.181 L 2551.181,0 L 0,0 L 0,2551.181 z"
         id="path709" /></clipPath><clipPath
       clipPathUnits="userSpaceOnUse"
       id="clipPath721"><path
         d="M 0,2551.181 L 2551.181,2551.181 L 2551.181,0 L 0,0 L 0,2551.181 z"
         id="path723" /></clipPath><clipPath
       clipPathUnits="userSpaceOnUse"
       id="clipPath735"><path
         d="M 0,2551.181 L 2551.181,2551.181 L 2551.181,0 L 0,0 L 0,2551.181 z"
         id="path737" /></clipPath><clipPath
       clipPathUnits="userSpaceOnUse"
       id="clipPath749"><path
         d="M 0,2551.181 L 2551.181,2551.181 L 2551.181,0 L 0,0 L 0,2551.181 z"
         id="path751" /></clipPath><clipPath
       clipPathUnits="userSpaceOnUse"
       id="clipPath763"><path
         d="M 0,2551.181 L 2551.181,2551.181 L 2551.181,0 L 0,0 L 0,2551.181 z"
         id="path765" /></clipPath><clipPath
       clipPathUnits="userSpaceOnUse"
       id="clipPath777"><path
         d="M 0,2551.181 L 2551.181,2551.181 L 2551.181,0 L 0,0 L 0,2551.181 z"
         id="path779" /></clipPath><clipPath
       clipPathUnits="userSpaceOnUse"
       id="clipPath791"><path
         d="M 0,2551.181 L 2551.181,2551.181 L 2551.181,0 L 0,0 L 0,2551.181 z"
         id="path793" /></clipPath><clipPath
       clipPathUnits="userSpaceOnUse"
       id="clipPath805"><path
         d="M 0,2551.181 L 2551.181,2551.181 L 2551.181,0 L 0,0 L 0,2551.181 z"
         id="path807" /></clipPath><clipPath
       clipPathUnits="userSpaceOnUse"
       id="clipPath819"><path
         d="M 0,2551.181 L 2551.181,2551.181 L 2551.181,0 L 0,0 L 0,2551.181 z"
         id="path821" /></clipPath><clipPath
       clipPathUnits="userSpaceOnUse"
       id="clipPath833"><path
         d="M 0,2551.181 L 2551.181,2551.181 L 2551.181,0 L 0,0 L 0,2551.181 z"
         id="path835" /></clipPath><clipPath
       clipPathUnits="userSpaceOnUse"
       id="clipPath847"><path
         d="M 0,2551.181 L 2551.181,2551.181 L 2551.181,0 L 0,0 L 0,2551.181 z"
         id="path849" /></clipPath><clipPath
       clipPathUnits="userSpaceOnUse"
       id="clipPath861"><path
         d="M 0,2551.181 L 2551.181,2551.181 L 2551.181,0 L 0,0 L 0,2551.181 z"
         id="path863" /></clipPath><clipPath
       clipPathUnits="userSpaceOnUse"
       id="clipPath875"><path
         d="M 0,2551.181 L 2551.181,2551.181 L 2551.181,0 L 0,0 L 0,2551.181 z"
         id="path877" /></clipPath><clipPath
       clipPathUnits="userSpaceOnUse"
       id="clipPath889"><path
         d="M 0,2551.181 L 2551.181,2551.181 L 2551.181,0 L 0,0 L 0,2551.181 z"
         id="path891" /></clipPath><clipPath
       clipPathUnits="userSpaceOnUse"
       id="clipPath903"><path
         d="M 0,2551.181 L 2551.181,2551.181 L 2551.181,0 L 0,0 L 0,2551.181 z"
         id="path905" /></clipPath><clipPath
       clipPathUnits="userSpaceOnUse"
       id="clipPath917"><path
         d="M 0,2551.181 L 2551.181,2551.181 L 2551.181,0 L 0,0 L 0,2551.181 z"
         id="path919" /></clipPath><clipPath
       clipPathUnits="userSpaceOnUse"
       id="clipPath931"><path
         d="M 0,2551.181 L 2551.181,2551.181 L 2551.181,0 L 0,0 L 0,2551.181 z"
         id="path933" /></clipPath><clipPath
       clipPathUnits="userSpaceOnUse"
       id="clipPath945"><path
         d="M 0,2551.181 L 2551.181,2551.181 L 2551.181,0 L 0,0 L 0,2551.181 z"
         id="path947" /></clipPath><clipPath
       clipPathUnits="userSpaceOnUse"
       id="clipPath959"><path
         d="M 0,2551.181 L 2551.181,2551.181 L 2551.181,0 L 0,0 L 0,2551.181 z"
         id="path961" /></clipPath><clipPath
       clipPathUnits="userSpaceOnUse"
       id="clipPath973"><path
         d="M 0,2551.181 L 2551.181,2551.181 L 2551.181,0 L 0,0 L 0,2551.181 z"
         id="path975" /></clipPath><clipPath
       clipPathUnits="userSpaceOnUse"
       id="clipPath991"><path
         d="M 0,2551.181 L 2551.181,2551.181 L 2551.181,0 L 0,0 L 0,2551.181 z"
         id="path993" /></clipPath><clipPath
       clipPathUnits="userSpaceOnUse"
       id="clipPath1005"><path
         d="M 0,2551.181 L 2551.181,2551.181 L 2551.181,0 L 0,0 L 0,2551.181 z"
         id="path1007" /></clipPath><clipPath
       clipPathUnits="userSpaceOnUse"
       id="clipPath1317"><path
         d="M 1125.159,1227.031 L 1147.576,1227.031 L 1147.576,1249.707 L 1125.159,1249.707 L 1125.159,1227.031 z"
         id="path1319" /></clipPath><clipPath
       clipPathUnits="userSpaceOnUse"
       id="clipPath1333"><path
         d="M 0,2551.181 L 2551.181,2551.181 L 2551.181,0 L 0,0 L 0,2551.181 z"
         id="path1335" /></clipPath><clipPath
       clipPathUnits="userSpaceOnUse"
       id="clipPath1601"><path
         d="M 0,2551.181 L 2551.181,2551.181 L 2551.181,0 L 0,0 L 0,2551.181 z"
         id="path1603" /></clipPath><clipPath
       clipPathUnits="userSpaceOnUse"
       id="clipPath1617"><path
         d="M 0,2551.181 L 2551.181,2551.181 L 2551.181,0 L 0,0 L 0,2551.181 z"
         id="path1619" /></clipPath><clipPath
       clipPathUnits="userSpaceOnUse"
       id="clipPath2059"><path
         d="M 0,2551.181 L 2551.181,2551.181 L 2551.181,0 L 0,0 L 0,2551.181 z"
         id="path2061" /></clipPath><clipPath
       clipPathUnits="userSpaceOnUse"
       id="clipPath2579"><path
         d="M 0,2551.181 L 2551.181,2551.181 L 2551.181,0 L 0,0 L 0,2551.181 z"
         id="path2581" /></clipPath><clipPath
       clipPathUnits="userSpaceOnUse"
       id="clipPath3035"><path
         d="M 0,2551.181 L 2551.181,2551.181 L 2551.181,0 L 0,0 L 0,2551.181 z"
         id="path3037" /></clipPath><clipPath
       clipPathUnits="userSpaceOnUse"
       id="clipPath3067"><path
         d="M 0,2551.181 L 2551.181,2551.181 L 2551.181,0 L 0,0 L 0,2551.181 z"
         id="path3069" /></clipPath><clipPath
       clipPathUnits="userSpaceOnUse"
       id="clipPath3777"><path
         d="M 0,2551.181 L 2551.181,2551.181 L 2551.181,0 L 0,0 L 0,2551.181 z"
         id="path3779" /></clipPath><clipPath
       clipPathUnits="userSpaceOnUse"
       id="clipPath3813"><path
         d="M 0,2551.181 L 2551.181,2551.181 L 2551.181,0 L 0,0 L 0,2551.181 z"
         id="path3815" /></clipPath><clipPath
       clipPathUnits="userSpaceOnUse"
       id="clipPath3827"><path
         d="M 0,2551.181 L 2551.181,2551.181 L 2551.181,0 L 0,0 L 0,2551.181 z"
         id="path3829" /></clipPath><clipPath
       clipPathUnits="userSpaceOnUse"
       id="clipPath3841"><path
         d="M 0,2551.181 L 2551.181,2551.181 L 2551.181,0 L 0,0 L 0,2551.181 z"
         id="path3843" /></clipPath><clipPath
       clipPathUnits="userSpaceOnUse"
       id="clipPath3855"><path
         d="M 0,2551.181 L 2551.181,2551.181 L 2551.181,0 L 0,0 L 0,2551.181 z"
         id="path3857" /></clipPath><clipPath
       clipPathUnits="userSpaceOnUse"
       id="clipPath3869"><path
         d="M 0,2551.181 L 2551.181,2551.181 L 2551.181,0 L 0,0 L 0,2551.181 z"
         id="path3871" /></clipPath><clipPath
       clipPathUnits="userSpaceOnUse"
       id="clipPath3883"><path
         d="M 0,2551.181 L 2551.181,2551.181 L 2551.181,0 L 0,0 L 0,2551.181 z"
         id="path3885" /></clipPath><clipPath
       clipPathUnits="userSpaceOnUse"
       id="clipPath3897"><path
         d="M 0,2551.181 L 2551.181,2551.181 L 2551.181,0 L 0,0 L 0,2551.181 z"
         id="path3899" /></clipPath><clipPath
       clipPathUnits="userSpaceOnUse"
       id="clipPath3911"><path
         d="M 0,2551.181 L 2551.181,2551.181 L 2551.181,0 L 0,0 L 0,2551.181 z"
         id="path3913" /></clipPath><clipPath
       clipPathUnits="userSpaceOnUse"
       id="clipPath3935"><path
         d="M 0,2551.181 L 2551.181,2551.181 L 2551.181,0 L 0,0 L 0,2551.181 z"
         id="path3937" /></clipPath><clipPath
       clipPathUnits="userSpaceOnUse"
       id="clipPath4549"><path
         d="M 671.825,639.382 L 695.992,639.382 L 695.992,663.548 L 671.825,663.548 L 671.825,639.382 z"
         id="path4551" /></clipPath><clipPath
       clipPathUnits="userSpaceOnUse"
       id="clipPath4561"><path
         d="M 0,2551.181 L 2551.181,2551.181 L 2551.181,0 L 0,0 L 0,2551.181 z"
         id="path4563" /></clipPath><clipPath
       clipPathUnits="userSpaceOnUse"
       id="clipPath4697"><path
         d="M 2174.937,644.338 L 2194.32,644.338 L 2194.32,663.943 L 2174.937,663.943 L 2174.937,644.338 z"
         id="path4699" /></clipPath><clipPath
       clipPathUnits="userSpaceOnUse"
       id="clipPath4713"><path
         d="M 0,2551.181 L 2551.181,2551.181 L 2551.181,0 L 0,0 L 0,2551.181 z"
         id="path4715" /></clipPath><clipPath
       clipPathUnits="userSpaceOnUse"
       id="clipPath4973"><path
         d="M 0,2551.181 L 2551.181,2551.181 L 2551.181,0 L 0,0 L 0,2551.181 z"
         id="path4975" /></clipPath><clipPath
       clipPathUnits="userSpaceOnUse"
       id="clipPath5369"><path
         d="M 0,2551.181 L 2551.181,2551.181 L 2551.181,0 L 0,0 L 0,2551.181 z"
         id="path5371" /></clipPath><clipPath
       clipPathUnits="userSpaceOnUse"
       id="clipPath5707"><path
         d="M 0,2551.181 L 2551.181,2551.181 L 2551.181,0 L 0,0 L 0,2551.181 z"
         id="path5709" /></clipPath></defs><sodipodi:namedview
     inkscape:window-height="752"
     inkscape:window-width="1280"
     inkscape:pageshadow="2"
     inkscape:pageopacity="0.0"
     guidetolerance="10.0"
     gridtolerance="10.0"
     objecttolerance="10.0"
     borderopacity="1.0"
     bordercolor="#666666"
     pagecolor="#ffffff"
     id="base"
     showgrid="false"
     inkscape:zoom="22.863007"
     inkscape:cx="11.8713"
     inkscape:cy="4.8563225"
     inkscape:window-x="0"
     inkscape:window-y="0"
     inkscape:current-layer="g11" /><g
     id="g11"
     inkscape:groupmode="layer"
     inkscape:label="A3ATM_Central"
     transform="matrix(1.25,0,0,-1.25,-1410.8664,766.04176)"><path
       d="M 1128.6931,612.83341 L 1153.9245,612.83341 L 1153.9245,587.36561 L 1128.6931,587.36561 L 1128.6931,612.83341 z"
       style="fill:#114681;fill-opacity:1;fill-rule:nonzero;stroke:none"
       id="path3929" /><path
       id="path3941"
       style="fill:#ffffff;fill-opacity:1;fill-rule:nonzero;stroke:none"
       d="M 1130.7899,590.49701 L 1130.7899,598.52151 C 1130.7899,598.52151 1130.6801,599.27419 1131.3623,599.65443 C 1132.0443,600.02947 1149.2029,610.11857 1149.2029,610.11857 C 1149.2029,610.11857 1149.8849,610.62297 1150.1267,609.96701 L 1150.1267,601.68769 L 1130.7899,590.49701 z" /><path
       id="path3945"
       style="fill:#114681;fill-opacity:1;fill-rule:nonzero;stroke:none"
       d="M 1135.0815,597.42609 L 1135.0815,600.90979 L 1132.5163,599.46587 L 1132.5163,595.98349 L 1135.0815,597.42609 z" /><path
       id="path3949"
       style="fill:#114681;fill-opacity:1;fill-rule:nonzero;stroke:none"
       d="M 1138.2997,599.18193 L 1138.2997,602.66825 L 1135.7373,601.22171 L 1135.7373,597.73539 L 1138.2997,599.18193 z" /><path
       id="path3953"
       style="fill:#114681;fill-opacity:1;fill-rule:nonzero;stroke:none"
       d="M 1141.6265,601.11143 L 1141.6265,604.59512 L 1139.0667,603.14597 L 1139.0667,599.66489 L 1141.6265,601.11143 z" /><path
       id="path3957"
       style="fill:#114681;fill-opacity:1;fill-rule:nonzero;stroke:none"
       d="M 1144.9679,603.03831 L 1144.9679,606.52199 L 1142.4015,605.07546 L 1142.4015,601.59177 L 1144.9679,603.03831 z" /><path
       id="path3961"
       style="fill:#114681;fill-opacity:1;fill-rule:nonzero;stroke:none"
       d="M 1148.2959,604.96518 L 1148.2959,608.44887 L 1145.7309,607.00233 L 1145.7309,603.51864 L 1148.2959,604.96518 z" /><path
       id="path3965"
       style="fill:none;stroke:#ffffff;stroke-width:0.64682204;stroke-linecap:butt;stroke-linejoin:miter;stroke-miterlimit:4;stroke-dasharray:none;stroke-opacity:1"
       d="M 1128.4547,587.55691 L 1153.8703,601.70075" /></g></svg>