<?xml version="1.0" encoding="UTF-8" standalone="no"?>
<!-- Created with Inkscape (http://www.inkscape.org/) -->
<svg
   xmlns:dc="http://purl.org/dc/elements/1.1/"
   xmlns:cc="http://creativecommons.org/ns#"
   xmlns:rdf="http://www.w3.org/1999/02/22-rdf-syntax-ns#"
   xmlns:svg="http://www.w3.org/2000/svg"
   xmlns="http://www.w3.org/2000/svg"
   xmlns:sodipodi="http://sodipodi.sourceforge.net/DTD/sodipodi-0.dtd"
   xmlns:inkscape="http://www.inkscape.org/namespaces/inkscape"
   width="46"
   height="46"
   id="svg2"
   sodipodi:version="0.32"
   inkscape:version="0.46"
   version="1.0"
   sodipodi:docname="L10B.svg"
   inkscape:output_extension="org.inkscape.output.svg.inkscape">
  <defs
     id="defs4">
    <inkscape:perspective
       sodipodi:type="inkscape:persp3d"
       inkscape:vp_x="0 : 526.18109 : 1"
       inkscape:vp_y="0 : 1000 : 0"
       inkscape:vp_z="744.09448 : 526.18109 : 1"
       inkscape:persp3d-origin="372.04724 : 350.78739 : 1"
       id="perspective10" />
    <inkscape:perspective
       id="perspective3219"
       inkscape:persp3d-origin="372.04724 : 350.78739 : 1"
       inkscape:vp_z="744.09448 : 526.18109 : 1"
       inkscape:vp_y="0 : 1000 : 0"
       inkscape:vp_x="0 : 526.18109 : 1"
       sodipodi:type="inkscape:persp3d" />
    <inkscape:perspective
       id="perspective3277"
       inkscape:persp3d-origin="372.04724 : 350.78739 : 1"
       inkscape:vp_z="744.09448 : 526.18109 : 1"
       inkscape:vp_y="0 : 1000 : 0"
       inkscape:vp_x="0 : 526.18109 : 1"
       sodipodi:type="inkscape:persp3d" />
    <inkscape:perspective
       id="perspective3377"
       inkscape:persp3d-origin="372.04724 : 350.78739 : 1"
       inkscape:vp_z="744.09448 : 526.18109 : 1"
       inkscape:vp_y="0 : 1000 : 0"
       inkscape:vp_x="0 : 526.18109 : 1"
       sodipodi:type="inkscape:persp3d" />
    <inkscape:perspective
       id="perspective3478"
       inkscape:persp3d-origin="372.04724 : 350.78739 : 1"
       inkscape:vp_z="744.09448 : 526.18109 : 1"
       inkscape:vp_y="0 : 1000 : 0"
       inkscape:vp_x="0 : 526.18109 : 1"
       sodipodi:type="inkscape:persp3d" />
    <inkscape:perspective
       id="perspective2451"
       inkscape:persp3d-origin="372.04724 : 350.78739 : 1"
       inkscape:vp_z="744.09448 : 526.18109 : 1"
       inkscape:vp_y="0 : 1000 : 0"
       inkscape:vp_x="0 : 526.18109 : 1"
       sodipodi:type="inkscape:persp3d" />
    <inkscape:perspective
       id="perspective2455"
       inkscape:persp3d-origin="372.04724 : 350.78739 : 1"
       inkscape:vp_z="744.09448 : 526.18109 : 1"
       inkscape:vp_y="0 : 1000 : 0"
       inkscape:vp_x="0 : 526.18109 : 1"
       sodipodi:type="inkscape:persp3d" />
    <inkscape:perspective
       id="perspective3295"
       inkscape:persp3d-origin="372.04724 : 350.78739 : 1"
       inkscape:vp_z="744.09448 : 526.18109 : 1"
       inkscape:vp_y="0 : 1000 : 0"
       inkscape:vp_x="0 : 526.18109 : 1"
       sodipodi:type="inkscape:persp3d" />
    <inkscape:perspective
       sodipodi:type="inkscape:persp3d"
       inkscape:vp_x="0 : 526.18109 : 1"
       inkscape:vp_y="0 : 1000 : 0"
       inkscape:vp_z="744.09448 : 526.18109 : 1"
       inkscape:persp3d-origin="372.04724 : 350.78739 : 1"
       id="perspective9222" />
    <clipPath
       clipPathUnits="userSpaceOnUse"
       id="clipPath17">
      <path
         d="M 0,0 L 595.276,0 L 595.276,935.433 L 0,935.433 L 0,0 z"
         id="path19" />
    </clipPath>
    <clipPath
       clipPathUnits="userSpaceOnUse"
       id="clipPath113">
      <path
         d="M 107.717,409.28 L 542.835,409.28 L 542.835,759.684 L 107.717,759.684 L 107.717,409.28 z"
         id="path115" />
    </clipPath>
    <clipPath
       clipPathUnits="userSpaceOnUse"
       id="clipPath129">
      <path
         d="M -32767,32767 L 32767,32767 L 32767,-32767 L -32767,-32767 L -32767,32767 z"
         id="path131" />
    </clipPath>
    <clipPath
       clipPathUnits="userSpaceOnUse"
       id="clipPath137">
      <path
         d="M 1.794,0.563 L 337.67,0.563 L 337.67,204.327 L 1.794,204.327 L 1.794,0.563 z"
         id="path139" />
    </clipPath>
    <clipPath
       clipPathUnits="userSpaceOnUse"
       id="clipPath167">
      <path
         d="M 107.717,409.28 L 542.835,409.28 L 542.835,759.684 L 107.717,759.684 L 107.717,409.28 z"
         id="path9233" />
    </clipPath>
    <clipPath
       clipPathUnits="userSpaceOnUse"
       id="clipPath2423">
      <path
         d="M 310.999,647.127 L 314.235,647.127 L 314.235,650.363 L 310.999,650.363 L 310.999,647.127 z"
         id="path2425" />
    </clipPath>
    <clipPath
       clipPathUnits="userSpaceOnUse"
       id="clipPath2435">
      <path
         d="M 107.717,409.28 L 542.835,409.28 L 542.835,759.684 L 107.717,759.684 L 107.717,409.28 z"
         id="path2437" />
    </clipPath>
    <clipPath
       clipPathUnits="userSpaceOnUse"
       id="clipPath2469">
      <path
         d="M 336.575,641.143 L 339.811,641.143 L 339.811,644.379 L 336.575,644.379 L 336.575,641.143 z"
         id="path2471" />
    </clipPath>
    <clipPath
       clipPathUnits="userSpaceOnUse"
       id="clipPath2481">
      <path
         d="M 107.717,409.28 L 542.835,409.28 L 542.835,759.684 L 107.717,759.684 L 107.717,409.28 z"
         id="path9242" />
    </clipPath>
    <clipPath
       clipPathUnits="userSpaceOnUse"
       id="clipPath5127">
      <path
         d="M -32767,32767 L 32767,32767 L 32767,-32767 L -32767,-32767 L -32767,32767 z"
         id="path5129" />
    </clipPath>
    <clipPath
       clipPathUnits="userSpaceOnUse"
       id="clipPath5135">
      <path
         d="M 103.651,133.406 C 103.352,133.406 103.089,133.143 103.089,132.844 L 103.089,132.844 L 103.089,130.394 C 103.089,130.094 103.352,129.831 103.651,129.831 L 103.651,129.831 L 115.94,129.831 C 116.24,129.831 116.502,130.094 116.502,130.394 L 116.502,130.394 L 116.502,132.844 C 116.502,133.143 116.24,133.406 115.94,133.406 L 115.94,133.406 L 103.651,133.406 z"
         id="path5137" />
    </clipPath>
    <clipPath
       clipPathUnits="userSpaceOnUse"
       id="clipPath5151">
      <path
         d="M -32767,32767 L 32767,32767 L 32767,-32767 L -32767,-32767 L -32767,32767 z"
         id="path5153" />
    </clipPath>
    <clipPath
       clipPathUnits="userSpaceOnUse"
       id="clipPath5159">
      <path
         d="M 101.351,127.816 L 118.504,127.816 L 118.504,135.69 L 101.351,135.69 L 101.351,127.816 z"
         id="path5161" />
    </clipPath>
    <clipPath
       clipPathUnits="userSpaceOnUse"
       id="clipPath5321">
      <path
         d="M -32767,32767 L 32767,32767 L 32767,-32767 L -32767,-32767 L -32767,32767 z"
         id="path5323" />
    </clipPath>
    <clipPath
       clipPathUnits="userSpaceOnUse"
       id="clipPath5329">
      <path
         d="M 1.836,204.327 L 1.836,38.788 C 17.128,38.712 99.408,38.816 99.408,38.816 L 99.408,38.816 L 99.408,41.566 L 87.283,41.566 L 87.283,50.066 L 92.908,50.066 L 92.908,47.941 L 106.408,47.941 L 106.408,45.066 L 104.283,45.066 L 104.283,42.44 L 107.658,42.44 L 110.783,39.941 L 110.282,37.566 L 127.157,37.566 L 127.157,44.441 L 131.532,44.441 L 131.532,40.441 L 139.532,40.441 L 139.532,46.066 L 145.407,46.066 L 145.407,41.941 L 150.196,41.941 L 150.196,47.191 L 157.117,53.161 L 159.657,53.161 L 159.657,48.641 L 163.532,48.641 L 163.532,53.037 L 166.157,54.691 L 173.907,54.691 L 171.907,51.566 L 169.032,51.566 L 169.032,49.316 L 173.407,49.316 L 177.157,54.316 L 182.782,54.316 L 182.782,51.691 L 176.032,45.066 L 174.657,46.691 L 170.532,46.691 L 170.532,45.066 L 173.657,45.066 L 173.657,42.566 L 160.782,42.566 L 160.782,45.066 L 157.157,45.066 L 157.157,43.316 L 158.656,43.316 L 158.782,42.066 L 153.407,35.316 L 146.032,35.316 L 139.157,29.316 L 119.783,29.316 L 105.533,21.815 L 107.782,17.69 L 120.282,24.691 L 141.282,24.691 L 148.032,30.816 L 154.532,30.816 L 161.907,37.815 L 173.532,37.815 C 173.532,37.815 174.406,39.191 176.157,38.94 L 176.157,38.94 C 177.907,38.691 181.657,39.316 182.657,40.441 L 182.657,40.441 C 183.657,41.566 185.531,42.316 186.281,42.316 L 186.281,42.316 C 187.032,42.316 189.781,42.066 191.781,44.816 L 191.781,44.816 C 193.781,47.566 196.406,51.816 202.406,51.816 L 202.406,51.816 L 206.032,51.816 L 206.032,47.941 L 207.781,47.941 L 207.781,51.566 C 207.781,51.566 208.906,53.066 209.781,52.316 L 209.781,52.316 C 210.656,51.566 210.531,50.816 211.906,51.816 L 211.906,51.816 C 213.281,52.816 214.781,53.441 214.906,52.316 L 214.906,52.316 C 215.031,51.191 214.906,49.816 214.906,49.816 L 214.906,49.816 L 212.281,49.816 L 212.281,48.065 L 214.906,48.065 L 214.906,45.566 L 206.406,45.566 L 206.406,44.066 L 218.406,44.066 L 218.406,53.566 L 250.156,53.566 C 250.156,53.566 253.531,52.441 260.155,52.441 L 260.155,52.441 L 275.155,52.441 L 275.155,66.601 L 278.03,66.601 L 278.03,52.441 L 337.491,52.441 L 337.491,204.327 L 1.836,204.327 z"
         id="path5331" />
    </clipPath>
    <clipPath
       clipPathUnits="userSpaceOnUse"
       id="clipPath5343">
      <path
         d="M 110.007,672.01 L 110.007,459.066 C 129.456,458.969 235.309,459.102 235.309,459.102 L 235.309,459.102 L 235.309,462.632 L 219.748,462.632 L 219.748,473.541 L 226.967,473.541 L 226.967,470.814 L 244.294,470.814 L 244.294,467.123 L 241.567,467.123 L 241.567,463.755 L 245.899,463.755 L 249.91,460.545 L 249.268,457.497 L 270.927,457.497 L 270.927,466.322 L 276.543,466.322 L 276.543,461.187 L 286.811,461.187 L 286.811,468.408 L 294.351,468.408 L 294.351,463.113 L 300.497,463.113 L 300.497,469.851 L 309.381,477.515 L 312.642,477.515 L 312.642,471.713 L 317.615,471.713 L 317.615,477.355 L 320.985,479.478 L 330.932,479.478 L 328.365,475.466 L 324.674,475.466 L 324.674,472.579 L 330.29,472.579 L 335.103,478.996 L 342.323,478.996 L 342.323,475.628 L 333.659,467.123 L 331.895,469.21 L 326.6,469.21 L 326.6,467.123 L 330.611,467.123 L 330.611,463.915 L 314.086,463.915 L 314.086,467.123 L 309.433,467.123 L 309.433,464.878 L 311.358,464.878 L 311.519,463.273 L 304.619,454.609 L 295.154,454.609 L 286.33,446.908 L 261.462,446.908 L 243.171,437.281 L 246.059,431.986 L 262.103,440.971 L 289.057,440.971 L 297.721,448.833 L 306.064,448.833 L 315.53,457.817 L 330.45,457.817 C 330.45,457.817 331.573,459.583 333.82,459.262 L 333.82,459.262 C 336.065,458.941 340.879,459.743 342.162,461.187 L 342.162,461.187 C 343.446,462.632 345.853,463.594 346.815,463.594 L 346.815,463.594 C 347.778,463.594 351.308,463.273 353.875,466.803 L 353.875,466.803 C 356.441,470.333 359.811,475.788 367.512,475.788 L 367.512,475.788 L 372.164,475.788 L 372.164,470.814 L 374.411,470.814 L 374.411,475.466 C 374.411,475.466 375.854,477.392 376.978,476.429 L 376.978,476.429 C 378.101,475.466 377.941,474.504 379.706,475.788 L 379.706,475.788 C 381.47,477.071 383.396,477.874 383.556,476.429 L 383.556,476.429 C 383.716,474.986 383.556,473.221 383.556,473.221 L 383.556,473.221 L 380.187,473.221 L 380.187,470.974 L 383.556,470.974 L 383.556,467.765 L 372.646,467.765 L 372.646,465.84 L 388.048,465.84 L 388.048,478.034 L 428.8,478.034 C 428.8,478.034 433.131,476.59 441.634,476.59 L 441.634,476.59 L 460.887,476.59 L 460.887,494.765 L 464.577,494.765 L 464.577,476.59 L 540.898,476.59 L 540.898,672.01 L 110.007,672.01 z"
         id="path5345" />
    </clipPath>
    <clipPath
       clipPathUnits="userSpaceOnUse"
       id="clipPath7551">
      <path
         d="M 310.999,647.127 L 314.235,647.127 L 314.235,650.363 L 310.999,650.363 L 310.999,647.127 z"
         id="path7553" />
    </clipPath>
    <clipPath
       clipPathUnits="userSpaceOnUse"
       id="clipPath7563">
      <path
         d="M 110.007,672.01 L 110.007,459.066 C 129.456,458.969 235.309,459.102 235.309,459.102 L 235.309,459.102 L 235.309,462.632 L 219.748,462.632 L 219.748,473.541 L 226.967,473.541 L 226.967,470.814 L 244.294,470.814 L 244.294,467.123 L 241.567,467.123 L 241.567,463.755 L 245.899,463.755 L 249.91,460.545 L 249.268,457.497 L 270.927,457.497 L 270.927,466.322 L 276.543,466.322 L 276.543,461.187 L 286.811,461.187 L 286.811,468.408 L 294.351,468.408 L 294.351,463.113 L 300.497,463.113 L 300.497,469.851 L 309.381,477.515 L 312.642,477.515 L 312.642,471.713 L 317.615,471.713 L 317.615,477.355 L 320.985,479.478 L 330.932,479.478 L 328.365,475.466 L 324.674,475.466 L 324.674,472.579 L 330.29,472.579 L 335.103,478.996 L 342.323,478.996 L 342.323,475.628 L 333.659,467.123 L 331.895,469.21 L 326.6,469.21 L 326.6,467.123 L 330.611,467.123 L 330.611,463.915 L 314.086,463.915 L 314.086,467.123 L 309.433,467.123 L 309.433,464.878 L 311.358,464.878 L 311.519,463.273 L 304.619,454.609 L 295.154,454.609 L 286.33,446.908 L 261.462,446.908 L 243.171,437.281 L 246.059,431.986 L 262.103,440.971 L 289.057,440.971 L 297.721,448.833 L 306.064,448.833 L 315.53,457.817 L 330.45,457.817 C 330.45,457.817 331.573,459.583 333.82,459.262 L 333.82,459.262 C 336.065,458.941 340.879,459.743 342.162,461.187 L 342.162,461.187 C 343.446,462.632 345.853,463.594 346.815,463.594 L 346.815,463.594 C 347.778,463.594 351.308,463.273 353.875,466.803 L 353.875,466.803 C 356.441,470.333 359.811,475.788 367.512,475.788 L 367.512,475.788 L 372.164,475.788 L 372.164,470.814 L 374.411,470.814 L 374.411,475.466 C 374.411,475.466 375.854,477.392 376.978,476.429 L 376.978,476.429 C 378.101,475.466 377.941,474.504 379.706,475.788 L 379.706,475.788 C 381.47,477.071 383.396,477.874 383.556,476.429 L 383.556,476.429 C 383.716,474.986 383.556,473.221 383.556,473.221 L 383.556,473.221 L 380.187,473.221 L 380.187,470.974 L 383.556,470.974 L 383.556,467.765 L 372.646,467.765 L 372.646,465.84 L 388.048,465.84 L 388.048,478.034 L 428.8,478.034 C 428.8,478.034 433.131,476.59 441.634,476.59 L 441.634,476.59 L 460.887,476.59 L 460.887,494.765 L 464.577,494.765 L 464.577,476.59 L 540.898,476.59 L 540.898,672.01 L 110.007,672.01 z"
         id="path7565" />
    </clipPath>
    <clipPath
       clipPathUnits="userSpaceOnUse"
       id="clipPath7597">
      <path
         d="M 336.575,641.143 L 339.811,641.143 L 339.811,644.379 L 336.575,644.379 L 336.575,641.143 z"
         id="path7599" />
    </clipPath>
    <clipPath
       clipPathUnits="userSpaceOnUse"
       id="clipPath7609">
      <path
         d="M 110.007,672.01 L 110.007,459.066 C 129.456,458.969 235.309,459.102 235.309,459.102 L 235.309,459.102 L 235.309,462.632 L 219.748,462.632 L 219.748,473.541 L 226.967,473.541 L 226.967,470.814 L 244.294,470.814 L 244.294,467.123 L 241.567,467.123 L 241.567,463.755 L 245.899,463.755 L 249.91,460.545 L 249.268,457.497 L 270.927,457.497 L 270.927,466.322 L 276.543,466.322 L 276.543,461.187 L 286.811,461.187 L 286.811,468.408 L 294.351,468.408 L 294.351,463.113 L 300.497,463.113 L 300.497,469.851 L 309.381,477.515 L 312.642,477.515 L 312.642,471.713 L 317.615,471.713 L 317.615,477.355 L 320.985,479.478 L 330.932,479.478 L 328.365,475.466 L 324.674,475.466 L 324.674,472.579 L 330.29,472.579 L 335.103,478.996 L 342.323,478.996 L 342.323,475.628 L 333.659,467.123 L 331.895,469.21 L 326.6,469.21 L 326.6,467.123 L 330.611,467.123 L 330.611,463.915 L 314.086,463.915 L 314.086,467.123 L 309.433,467.123 L 309.433,464.878 L 311.358,464.878 L 311.519,463.273 L 304.619,454.609 L 295.154,454.609 L 286.33,446.908 L 261.462,446.908 L 243.171,437.281 L 246.059,431.986 L 262.103,440.971 L 289.057,440.971 L 297.721,448.833 L 306.064,448.833 L 315.53,457.817 L 330.45,457.817 C 330.45,457.817 331.573,459.583 333.82,459.262 L 333.82,459.262 C 336.065,458.941 340.879,459.743 342.162,461.187 L 342.162,461.187 C 343.446,462.632 345.853,463.594 346.815,463.594 L 346.815,463.594 C 347.778,463.594 351.308,463.273 353.875,466.803 L 353.875,466.803 C 356.441,470.333 359.811,475.788 367.512,475.788 L 367.512,475.788 L 372.164,475.788 L 372.164,470.814 L 374.411,470.814 L 374.411,475.466 C 374.411,475.466 375.854,477.392 376.978,476.429 L 376.978,476.429 C 378.101,475.466 377.941,474.504 379.706,475.788 L 379.706,475.788 C 381.47,477.071 383.396,477.874 383.556,476.429 L 383.556,476.429 C 383.716,474.986 383.556,473.221 383.556,473.221 L 383.556,473.221 L 380.187,473.221 L 380.187,470.974 L 383.556,470.974 L 383.556,467.765 L 372.646,467.765 L 372.646,465.84 L 388.048,465.84 L 388.048,478.034 L 428.8,478.034 C 428.8,478.034 433.131,476.59 441.634,476.59 L 441.634,476.59 L 460.887,476.59 L 460.887,494.765 L 464.577,494.765 L 464.577,476.59 L 540.898,476.59 L 540.898,672.01 L 110.007,672.01 z"
         id="path7611" />
    </clipPath>
    <clipPath
       clipPathUnits="userSpaceOnUse"
       id="clipPath10253">
      <path
         d="M 107.717,409.28 L 542.835,409.28 L 542.835,759.684 L 107.717,759.684 L 107.717,409.28 z"
         id="path10255" />
    </clipPath>
    <clipPath
       clipPathUnits="userSpaceOnUse"
       id="clipPath10263">
      <path
         d="M -32767,32767 L 32767,32767 L 32767,-32767 L -32767,-32767 L -32767,32767 z"
         id="path10265" />
    </clipPath>
    <clipPath
       clipPathUnits="userSpaceOnUse"
       id="clipPath10271">
      <path
         d="M 103.651,133.406 C 103.352,133.406 103.089,133.143 103.089,132.844 L 103.089,132.844 L 103.089,130.394 C 103.089,130.094 103.352,129.831 103.651,129.831 L 103.651,129.831 L 115.94,129.831 C 116.24,129.831 116.502,130.094 116.502,130.394 L 116.502,130.394 L 116.502,132.844 C 116.502,133.143 116.24,133.406 115.94,133.406 L 115.94,133.406 L 103.651,133.406 z"
         id="path10273" />
    </clipPath>
    <clipPath
       clipPathUnits="userSpaceOnUse"
       id="clipPath10287">
      <path
         d="M -32767,32767 L 32767,32767 L 32767,-32767 L -32767,-32767 L -32767,32767 z"
         id="path10289" />
    </clipPath>
    <clipPath
       clipPathUnits="userSpaceOnUse"
       id="clipPath10295">
      <path
         d="M 101.353,127.817 L 118.507,127.817 L 118.507,135.691 L 101.353,135.691 L 101.353,127.817 z"
         id="path10297" />
    </clipPath>
    <clipPath
       clipPathUnits="userSpaceOnUse"
       id="clipPath10309">
      <path
         d="M 110.007,672.01 L 110.007,459.066 C 129.456,458.969 235.309,459.102 235.309,459.102 L 235.309,459.102 L 235.309,462.632 L 219.748,462.632 L 219.748,473.541 L 226.967,473.541 L 226.967,470.814 L 244.294,470.814 L 244.294,467.123 L 241.567,467.123 L 241.567,463.755 L 245.899,463.755 L 249.91,460.545 L 249.268,457.497 L 270.927,457.497 L 270.927,466.322 L 276.543,466.322 L 276.543,461.187 L 286.811,461.187 L 286.811,468.408 L 294.351,468.408 L 294.351,463.113 L 300.497,463.113 L 300.497,469.851 L 309.381,477.515 L 312.642,477.515 L 312.642,471.713 L 317.615,471.713 L 317.615,477.355 L 320.985,479.478 L 330.932,479.478 L 328.365,475.466 L 324.674,475.466 L 324.674,472.579 L 330.29,472.579 L 335.103,478.996 L 342.323,478.996 L 342.323,475.628 L 333.659,467.123 L 331.895,469.21 L 326.6,469.21 L 326.6,467.123 L 330.611,467.123 L 330.611,463.915 L 314.086,463.915 L 314.086,467.123 L 309.433,467.123 L 309.433,464.878 L 311.358,464.878 L 311.519,463.273 L 304.619,454.609 L 295.154,454.609 L 286.33,446.908 L 261.462,446.908 L 243.171,437.281 L 246.059,431.986 L 262.103,440.971 L 289.057,440.971 L 297.721,448.833 L 306.064,448.833 L 315.53,457.817 L 330.45,457.817 C 330.45,457.817 331.573,459.583 333.82,459.262 L 333.82,459.262 C 336.065,458.941 340.879,459.743 342.162,461.187 L 342.162,461.187 C 343.446,462.632 345.853,463.594 346.815,463.594 L 346.815,463.594 C 347.778,463.594 351.308,463.273 353.875,466.803 L 353.875,466.803 C 356.441,470.333 359.811,475.788 367.512,475.788 L 367.512,475.788 L 372.164,475.788 L 372.164,470.814 L 374.411,470.814 L 374.411,475.466 C 374.411,475.466 375.854,477.392 376.978,476.429 L 376.978,476.429 C 378.101,475.466 377.941,474.504 379.706,475.788 L 379.706,475.788 C 381.47,477.071 383.396,477.874 383.556,476.429 L 383.556,476.429 C 383.716,474.986 383.556,473.221 383.556,473.221 L 383.556,473.221 L 380.187,473.221 L 380.187,470.974 L 383.556,470.974 L 383.556,467.765 L 372.646,467.765 L 372.646,465.84 L 388.048,465.84 L 388.048,478.034 L 428.8,478.034 C 428.8,478.034 433.131,476.59 441.634,476.59 L 441.634,476.59 L 460.887,476.59 L 460.887,494.765 L 464.577,494.765 L 464.577,476.59 L 540.898,476.59 L 540.898,672.01 L 110.007,672.01 z"
         id="path10311" />
    </clipPath>
    <clipPath
       clipPathUnits="userSpaceOnUse"
       id="clipPath10459">
      <path
         d="M 107.717,409.28 L 542.835,409.28 L 542.835,759.684 L 107.717,759.684 L 107.717,409.28 z"
         id="path10461" />
    </clipPath>
    <clipPath
       clipPathUnits="userSpaceOnUse"
       id="clipPath11307">
      <path
         d="M 0,0 L 595.276,0 L 595.276,935.433 L 0,935.433 L 0,0 z"
         id="path11309" />
    </clipPath>
    <clipPath
       clipPathUnits="userSpaceOnUse"
       id="clipPath11323">
      <path
         d="M 0,801.355 L 178.771,801.355 L 178.771,935.433 L 0,935.433 L 0,801.355 z"
         id="path11325" />
    </clipPath>
    <clipPath
       clipPathUnits="userSpaceOnUse"
       id="clipPath11335">
      <path
         d="M 182.053,801.355 L 360.781,801.355 L 360.781,935.433 L 182.053,935.433 L 182.053,801.355 z"
         id="path11337" />
    </clipPath>
    <clipPath
       clipPathUnits="userSpaceOnUse"
       id="clipPath11347">
      <path
         d="M 364.063,801.355 L 542.835,801.355 L 542.835,935.433 L 364.063,935.433 L 364.063,801.355 z"
         id="path11349" />
    </clipPath>
    <clipPath
       clipPathUnits="userSpaceOnUse"
       id="clipPath11359">
      <path
         d="M 0,0 L 595.276,0 L 595.276,935.433 L 0,935.433 L 0,0 z"
         id="path11361" />
    </clipPath>
    <clipPath
       clipPathUnits="userSpaceOnUse"
       id="clipPath11367">
      <path
         d="M -11.9415,808.646 L 132.586,808.646 L 132.586,666.276 L -11.9415,666.276 L -11.9415,808.646 z"
         id="path11369" />
    </clipPath>
    <linearGradient
       x1="0"
       y1="0"
       x2="1"
       y2="0"
       gradientUnits="userSpaceOnUse"
       gradientTransform="matrix(140.08995,0,0,-140.08995,-8.503952,667.2756)"
       spreadMethod="pad"
       id="linearGradient11375">
      <stop
         style="stop-opacity:1;stop-color:#ffffff"
         offset="0"
         id="stop11377" />
      <stop
         style="stop-opacity:0;stop-color:#ffffff"
         offset="1"
         id="stop11379" />
    </linearGradient>
    <mask
       maskUnits="userSpaceOnUse"
       x="0"
       y="0"
       width="1"
       height="1"
       id="mask11381">
      <g
         id="g11383">
        <g
           id="g11385">
          <g
             id="g11387">
            <g
               id="g11389">
              <path
                 d="M -32768,32767 L 32765.8,32767 L 32765.8,-32294.6 L -32768,-32294.6 L -32768,32767 z"
                 style="fill:url(#linearGradient11375);stroke:none"
                 id="path11391" />
            </g>
          </g>
        </g>
      </g>
    </mask>
    <clipPath
       clipPathUnits="userSpaceOnUse"
       id="clipPath11393">
      <path
         d="M -11.9415,808.646 L 132.586,808.646 L 132.586,666.276 L -11.9415,666.276 L -11.9415,808.646 z"
         id="path11395" />
    </clipPath>
    <clipPath
       clipPathUnits="userSpaceOnUse"
       id="clipPath11419">
      <path
         d="M 537.583,802.354 L 598.713,802.354 L 598.713,659.984 L 537.583,659.984 L 537.583,802.354 z"
         id="path11421" />
    </clipPath>
    <linearGradient
       x1="0"
       y1="0"
       x2="1"
       y2="0"
       gradientUnits="userSpaceOnUse"
       gradientTransform="matrix(-56.692917,0,0,56.692917,595.27556,801.35434)"
       spreadMethod="pad"
       id="linearGradient11427">
      <stop
         style="stop-opacity:1;stop-color:#ffffff"
         offset="0"
         id="stop11429" />
      <stop
         style="stop-opacity:0;stop-color:#ffffff"
         offset="1"
         id="stop11431" />
    </linearGradient>
    <mask
       maskUnits="userSpaceOnUse"
       x="0"
       y="0"
       width="1"
       height="1"
       id="mask11433">
      <g
         id="g11435">
        <g
           id="g11437">
          <g
             id="g11439">
            <g
               id="g11441">
              <path
                 d="M -32179,32767 L 32767,32767 L 32767,-31771.7 L -32179,-31771.7 L -32179,32767 z"
                 style="fill:url(#linearGradient11427);stroke:none"
                 id="path11443" />
            </g>
          </g>
        </g>
      </g>
    </mask>
    <clipPath
       clipPathUnits="userSpaceOnUse"
       id="clipPath11445">
      <path
         d="M 537.583,802.354 L 598.713,802.354 L 598.713,659.984 L 537.583,659.984 L 537.583,802.354 z"
         id="path11447" />
    </clipPath>
    <inkscape:perspective
       sodipodi:type="inkscape:persp3d"
       inkscape:vp_x="0 : 526.18109 : 1"
       inkscape:vp_y="0 : 1000 : 0"
       inkscape:vp_z="744.09448 : 526.18109 : 1"
       inkscape:persp3d-origin="372.04724 : 350.78739 : 1"
       id="perspective4026" />
    <inkscape:perspective
       sodipodi:type="inkscape:persp3d"
       inkscape:vp_x="0 : 526.18109 : 1"
       inkscape:vp_y="0 : 1000 : 0"
       inkscape:vp_z="744.09448 : 526.18109 : 1"
       inkscape:persp3d-origin="372.04724 : 350.78739 : 1"
       id="perspective4024" />
    <inkscape:perspective
       sodipodi:type="inkscape:persp3d"
       inkscape:vp_x="0 : 526.18109 : 1"
       inkscape:vp_y="0 : 1000 : 0"
       inkscape:vp_z="744.09448 : 526.18109 : 1"
       inkscape:persp3d-origin="372.04724 : 350.78739 : 1"
       id="perspective4022" />
    <inkscape:perspective
       sodipodi:type="inkscape:persp3d"
       inkscape:vp_x="0 : 526.18109 : 1"
       inkscape:vp_y="0 : 1000 : 0"
       inkscape:vp_z="744.09448 : 526.18109 : 1"
       inkscape:persp3d-origin="372.04724 : 350.78739 : 1"
       id="perspective4020" />
    <inkscape:perspective
       sodipodi:type="inkscape:persp3d"
       inkscape:vp_x="0 : 526.18109 : 1"
       inkscape:vp_y="0 : 1000 : 0"
       inkscape:vp_z="744.09448 : 526.18109 : 1"
       inkscape:persp3d-origin="372.04724 : 350.78739 : 1"
       id="perspective4018" />
    <inkscape:perspective
       id="perspective4016"
       inkscape:persp3d-origin="372.04724 : 350.78739 : 1"
       inkscape:vp_z="744.09448 : 526.18109 : 1"
       inkscape:vp_y="0 : 1000 : 0"
       inkscape:vp_x="0 : 526.18109 : 1"
       sodipodi:type="inkscape:persp3d" />
    <clipPath
       id="clipPath6933"
       clipPathUnits="userSpaceOnUse">
      <path
         id="path6935"
         d="M 877.44,975.599 L 877.441,1214.111 L 668.13,1214.111 C 672.2,1212.253 675.41,1210.744 675.753,1210.609 C 749.672,1181.592 843.186,1083.518 877.44,975.599" />
    </clipPath>
    <clipPath
       id="clipPath6547"
       clipPathUnits="userSpaceOnUse">
      <path
         id="path6549"
         d="M 178.025,1113.155 L 189.122,1113.155 L 189.122,1102.058 L 178.025,1102.058 L 178.025,1113.155 z" />
    </clipPath>
    <clipPath
       id="clipPath3375"
       clipPathUnits="userSpaceOnUse">
      <path
         id="path3377"
         d="M 106.843,553.706 L 118.664,553.706 L 118.664,541.884 L 106.843,541.884 L 106.843,553.706 z" />
    </clipPath>
    <clipPath
       id="clipPath3357"
       clipPathUnits="userSpaceOnUse">
      <path
         id="path3359"
         d="M 179.247,627.067 L 191.069,627.067 L 191.069,615.246 L 179.247,615.246 L 179.247,627.067 z" />
    </clipPath>
    <clipPath
       id="clipPath3339"
       clipPathUnits="userSpaceOnUse">
      <path
         id="path3341"
         d="M 173.107,678.42 L 184.928,678.42 L 184.928,666.598 L 173.107,666.598 L 173.107,678.42 z" />
    </clipPath>
    <clipPath
       id="clipPath3321"
       clipPathUnits="userSpaceOnUse">
      <path
         id="path3323"
         d="M 206.513,677.942 L 218.335,677.942 L 218.335,666.12 L 206.513,666.12 L 206.513,677.942 z" />
    </clipPath>
    <clipPath
       id="clipPath2455"
       clipPathUnits="userSpaceOnUse">
      <path
         id="path2457"
         d="M 592.784,597.538 L 604.14,597.538 L 604.14,586.182 L 592.784,586.182 L 592.784,597.538 z" />
    </clipPath>
    <clipPath
       id="clipPath2429"
       clipPathUnits="userSpaceOnUse">
      <path
         id="path2431"
         d="M 508.368,593.52 L 519.724,593.52 L 519.724,582.163 L 508.368,582.163 L 508.368,593.52 z" />
    </clipPath>
    <clipPath
       id="clipPath2411"
       clipPathUnits="userSpaceOnUse">
      <path
         id="path2413"
         d="M 89.397,496.471 L 100.753,496.471 L 100.753,485.114 L 89.397,485.114 L 89.397,496.471 z" />
    </clipPath>
    <clipPath
       id="clipPath2393"
       clipPathUnits="userSpaceOnUse">
      <path
         id="path2395"
         d="M 230.916,858.567 L 242.273,858.567 L 242.273,847.211 L 230.916,847.211 L 230.916,858.567 z" />
    </clipPath>
    <clipPath
       id="clipPath2297"
       clipPathUnits="userSpaceOnUse">
      <path
         id="path2299"
         d="M 687.938,622.162 L 699.295,622.162 L 699.295,610.806 L 687.938,610.806 L 687.938,622.162 z" />
    </clipPath>
    <clipPath
       id="clipPath2279"
       clipPathUnits="userSpaceOnUse">
      <path
         id="path2281"
         d="M 703.313,627.037 L 714.67,627.037 L 714.67,615.681 L 703.313,615.681 L 703.313,627.037 z" />
    </clipPath>
    <clipPath
       id="clipPath2261"
       clipPathUnits="userSpaceOnUse">
      <path
         id="path2263"
         d="M 718.876,631.85 L 730.233,631.85 L 730.233,620.494 L 718.876,620.494 L 718.876,631.85 z" />
    </clipPath>
    <clipPath
       id="clipPath2239"
       clipPathUnits="userSpaceOnUse">
      <path
         id="path2241"
         d="M 518.176,707.533 L 529.532,707.533 L 529.532,696.177 L 518.176,696.177 L 518.176,707.533 z" />
    </clipPath>
    <clipPath
       id="clipPath2217"
       clipPathUnits="userSpaceOnUse">
      <path
         id="path2219"
         d="M 435.732,1177.271 L 447.088,1177.271 L 447.088,1165.915 L 435.732,1165.915 L 435.732,1177.271 z" />
    </clipPath>
    <clipPath
       id="clipPath2199"
       clipPathUnits="userSpaceOnUse">
      <path
         id="path2201"
         d="M 658.86,1078.524 L 670.216,1078.524 L 670.216,1067.167 L 658.86,1067.167 L 658.86,1078.524 z" />
    </clipPath>
    <clipPath
       id="clipPath2181"
       clipPathUnits="userSpaceOnUse">
      <path
         id="path2183"
         d="M 689.453,1074.524 L 700.81,1074.524 L 700.81,1063.167 L 689.453,1063.167 L 689.453,1074.524 z" />
    </clipPath>
    <clipPath
       id="clipPath2163"
       clipPathUnits="userSpaceOnUse">
      <path
         id="path2165"
         d="M 720.985,1069.774 L 732.341,1069.774 L 732.341,1058.417 L 720.985,1058.417 L 720.985,1069.774 z" />
    </clipPath>
    <clipPath
       id="clipPath2117"
       clipPathUnits="userSpaceOnUse">
      <path
         id="path2119"
         d="M 586.018,546.58 L 597.447,546.58 L 597.447,535.151 L 586.018,535.151 L 586.018,546.58 z" />
    </clipPath>
    <clipPath
       id="clipPath2079"
       clipPathUnits="userSpaceOnUse">
      <path
         id="path2081"
         d="M 592.832,584.321 L 604.175,584.321 L 604.175,572.979 L 592.832,572.979 L 592.832,584.321 z" />
    </clipPath>
    <clipPath
       id="clipPath47"
       clipPathUnits="userSpaceOnUse">
      <path
         id="path49"
         d="M 118.229,624.27 L 118.23,582.73 C 118.23,578.554 118.537,576.104 121.111,573.529 L 146.222,548.445 C 147.788,546.879 150.085,547.321 150.085,549.486 L 150.085,592.276 C 150.085,596.735 150.237,598.247 151.979,599.989 L 152.381,600.364 C 153.157,601.139 156.476,602.847 159.219,600.103 L 167.078,592.166 C 169.834,589.41 172.335,588.899 174.946,591.511 L 180.832,597.362 C 183.341,599.871 182.642,602.234 179.911,604.965 L 174.822,610.072 C 169.595,615.299 168.46,619.586 168.46,626.65 L 168.46,660.847 C 168.46,666.764 169.557,674.282 173.179,677.854 C 177.922,682.533 180.395,688.362 180.397,693.596 L 180.395,1061.738 C 180.395,1073.691 182.236,1083.69 191.626,1093.081 L 219.003,1120.214 C 226.636,1127.847 230.599,1133.707 230.599,1146.87 L 230.599,1160.191 L 442.279,1160.12 C 452.087,1160.12 458.546,1155.263 458.546,1145.694 L 458.47,1057.574 C 458.47,1051.192 461.975,1045.276 473.28,1045.276 L 581.696,1045.46 C 589.232,1045.46 597.964,1038.297 597.964,1029.6 L 597.961,789.272 C 597.961,781.554 603.316,770.921 606.625,767.612 L 655.669,718.797 C 662.43,712.036 663.619,707.444 663.619,699.181 L 663.619,364.951 C 663.619,353.928 666.066,348.862 672.943,341.986 L 720.547,294.241 C 725.906,288.882 726.978,286.126 726.978,276.634 L 726.978,240.808 C 726.978,234.071 725.141,231.219 721.716,227.794 L 678.681,184.619 C 673.086,179.024 670.938,174.514 670.938,165.481 L 670.944,146.817 C 670.944,138.225 665.122,135.621 657.777,135.621 L 462.818,135.621 C 453.325,135.621 451.18,134.148 445.765,128.732 L 407.614,90.494 C 401.15,84.03 399.054,83.116 388.648,83.116 L 253.841,83.116 C 245.567,83.116 236.754,82.881 230.666,88.969 L 222.464,96.129 C 217.102,101.491 211.59,101.594 203.932,101.594 L 164.476,101.594 L 164.479,382.924 C 164.479,386.322 162.15,387.354 159.434,387.354 L 126.668,387.354 C 121.482,387.354 118.937,389.352 118.937,394.175 L 118.906,431.636 C 118.906,435.921 119.728,437.353 122.997,437.353 L 124.353,437.353 C 127.582,437.353 128.946,435.801 128.946,431.748 L 128.946,409.506 C 128.946,406.098 129.754,404.503 134.487,404.503 L 159.841,404.533 C 162.07,404.533 164.479,406.337 164.479,408.692 L 164.476,445.894 C 164.476,452.458 162.055,458.122 158.053,462.125 L 113.033,508.402 C 104.175,517.261 101.09,525.222 101.09,536.872 L 101.092,624.266 L 118.229,624.27" />
    </clipPath>
    <clipPath
       id="clipPath19"
       clipPathUnits="userSpaceOnUse">
      <path
         id="path21"
         d="M 49.065,1214.02 L 746.73,1214.02 L 746.73,48.174 L 49.065,48.174 L 49.065,1214.02 z" />
    </clipPath>
    <inkscape:perspective
       id="perspective9"
       inkscape:persp3d-origin="372.04724 : 350.78739 : 1"
       inkscape:vp_z="744.09448 : 526.18109 : 1"
       inkscape:vp_y="0 : 1000 : 0"
       inkscape:vp_x="0 : 526.18109 : 1"
       sodipodi:type="inkscape:persp3d" />
    <inkscape:perspective
       sodipodi:type="inkscape:persp3d"
       inkscape:vp_x="0 : 526.18109 : 1"
       inkscape:vp_y="0 : 1000 : 0"
       inkscape:vp_z="744.09448 : 526.18109 : 1"
       inkscape:persp3d-origin="372.04724 : 350.78739 : 1"
       id="perspective3162" />
    <clipPath
       clipPathUnits="userSpaceOnUse"
       id="clipPath3158">
      <path
         d="M 0,0 L 595.276,0 L 595.276,935.433 L 0,935.433 L 0,0 z"
         id="path3160" />
    </clipPath>
    <clipPath
       clipPathUnits="userSpaceOnUse"
       id="clipPath3154">
      <path
         d="M 107.717,409.28 L 542.835,409.28 L 542.835,759.684 L 107.717,759.684 L 107.717,409.28 z"
         id="path3156" />
    </clipPath>
    <clipPath
       clipPathUnits="userSpaceOnUse"
       id="clipPath3150">
      <path
         d="M -32767,32767 L 32767,32767 L 32767,-32767 L -32767,-32767 L -32767,32767 z"
         id="path3152" />
    </clipPath>
    <clipPath
       clipPathUnits="userSpaceOnUse"
       id="clipPath3146">
      <path
         d="M 1.794,0.563 L 337.67,0.563 L 337.67,204.327 L 1.794,204.327 L 1.794,0.563 z"
         id="path3148" />
    </clipPath>
    <clipPath
       clipPathUnits="userSpaceOnUse"
       id="clipPath3143">
      <path
         d="M 107.717,409.28 L 542.835,409.28 L 542.835,759.684 L 107.717,759.684 L 107.717,409.28 z"
         id="path169" />
    </clipPath>
    <clipPath
       clipPathUnits="userSpaceOnUse"
       id="clipPath3139">
      <path
         d="M 310.999,647.127 L 314.235,647.127 L 314.235,650.363 L 310.999,650.363 L 310.999,647.127 z"
         id="path3141" />
    </clipPath>
    <clipPath
       clipPathUnits="userSpaceOnUse"
       id="clipPath3135">
      <path
         d="M 107.717,409.28 L 542.835,409.28 L 542.835,759.684 L 107.717,759.684 L 107.717,409.28 z"
         id="path3137" />
    </clipPath>
    <clipPath
       clipPathUnits="userSpaceOnUse"
       id="clipPath3131">
      <path
         d="M 336.575,641.143 L 339.811,641.143 L 339.811,644.379 L 336.575,644.379 L 336.575,641.143 z"
         id="path3133" />
    </clipPath>
    <clipPath
       clipPathUnits="userSpaceOnUse"
       id="clipPath3128">
      <path
         d="M 107.717,409.28 L 542.835,409.28 L 542.835,759.684 L 107.717,759.684 L 107.717,409.28 z"
         id="path2483" />
    </clipPath>
    <clipPath
       clipPathUnits="userSpaceOnUse"
       id="clipPath3124">
      <path
         d="M -32767,32767 L 32767,32767 L 32767,-32767 L -32767,-32767 L -32767,32767 z"
         id="path3126" />
    </clipPath>
    <clipPath
       clipPathUnits="userSpaceOnUse"
       id="clipPath3120">
      <path
         d="M 103.651,133.406 C 103.352,133.406 103.089,133.143 103.089,132.844 L 103.089,132.844 L 103.089,130.394 C 103.089,130.094 103.352,129.831 103.651,129.831 L 103.651,129.831 L 115.94,129.831 C 116.24,129.831 116.502,130.094 116.502,130.394 L 116.502,130.394 L 116.502,132.844 C 116.502,133.143 116.24,133.406 115.94,133.406 L 115.94,133.406 L 103.651,133.406 z"
         id="path3122" />
    </clipPath>
    <clipPath
       clipPathUnits="userSpaceOnUse"
       id="clipPath3116">
      <path
         d="M -32767,32767 L 32767,32767 L 32767,-32767 L -32767,-32767 L -32767,32767 z"
         id="path3118" />
    </clipPath>
    <clipPath
       clipPathUnits="userSpaceOnUse"
       id="clipPath3112">
      <path
         d="M 101.351,127.816 L 118.504,127.816 L 118.504,135.69 L 101.351,135.69 L 101.351,127.816 z"
         id="path3114" />
    </clipPath>
    <clipPath
       clipPathUnits="userSpaceOnUse"
       id="clipPath3108">
      <path
         d="M -32767,32767 L 32767,32767 L 32767,-32767 L -32767,-32767 L -32767,32767 z"
         id="path3110" />
    </clipPath>
    <clipPath
       clipPathUnits="userSpaceOnUse"
       id="clipPath3104">
      <path
         d="M 1.836,204.327 L 1.836,38.788 C 17.128,38.712 99.408,38.816 99.408,38.816 L 99.408,38.816 L 99.408,41.566 L 87.283,41.566 L 87.283,50.066 L 92.908,50.066 L 92.908,47.941 L 106.408,47.941 L 106.408,45.066 L 104.283,45.066 L 104.283,42.44 L 107.658,42.44 L 110.783,39.941 L 110.282,37.566 L 127.157,37.566 L 127.157,44.441 L 131.532,44.441 L 131.532,40.441 L 139.532,40.441 L 139.532,46.066 L 145.407,46.066 L 145.407,41.941 L 150.196,41.941 L 150.196,47.191 L 157.117,53.161 L 159.657,53.161 L 159.657,48.641 L 163.532,48.641 L 163.532,53.037 L 166.157,54.691 L 173.907,54.691 L 171.907,51.566 L 169.032,51.566 L 169.032,49.316 L 173.407,49.316 L 177.157,54.316 L 182.782,54.316 L 182.782,51.691 L 176.032,45.066 L 174.657,46.691 L 170.532,46.691 L 170.532,45.066 L 173.657,45.066 L 173.657,42.566 L 160.782,42.566 L 160.782,45.066 L 157.157,45.066 L 157.157,43.316 L 158.656,43.316 L 158.782,42.066 L 153.407,35.316 L 146.032,35.316 L 139.157,29.316 L 119.783,29.316 L 105.533,21.815 L 107.782,17.69 L 120.282,24.691 L 141.282,24.691 L 148.032,30.816 L 154.532,30.816 L 161.907,37.815 L 173.532,37.815 C 173.532,37.815 174.406,39.191 176.157,38.94 L 176.157,38.94 C 177.907,38.691 181.657,39.316 182.657,40.441 L 182.657,40.441 C 183.657,41.566 185.531,42.316 186.281,42.316 L 186.281,42.316 C 187.032,42.316 189.781,42.066 191.781,44.816 L 191.781,44.816 C 193.781,47.566 196.406,51.816 202.406,51.816 L 202.406,51.816 L 206.032,51.816 L 206.032,47.941 L 207.781,47.941 L 207.781,51.566 C 207.781,51.566 208.906,53.066 209.781,52.316 L 209.781,52.316 C 210.656,51.566 210.531,50.816 211.906,51.816 L 211.906,51.816 C 213.281,52.816 214.781,53.441 214.906,52.316 L 214.906,52.316 C 215.031,51.191 214.906,49.816 214.906,49.816 L 214.906,49.816 L 212.281,49.816 L 212.281,48.065 L 214.906,48.065 L 214.906,45.566 L 206.406,45.566 L 206.406,44.066 L 218.406,44.066 L 218.406,53.566 L 250.156,53.566 C 250.156,53.566 253.531,52.441 260.155,52.441 L 260.155,52.441 L 275.155,52.441 L 275.155,66.601 L 278.03,66.601 L 278.03,52.441 L 337.491,52.441 L 337.491,204.327 L 1.836,204.327 z"
         id="path3106" />
    </clipPath>
    <clipPath
       clipPathUnits="userSpaceOnUse"
       id="clipPath3100">
      <path
         d="M 110.007,672.01 L 110.007,459.066 C 129.456,458.969 235.309,459.102 235.309,459.102 L 235.309,459.102 L 235.309,462.632 L 219.748,462.632 L 219.748,473.541 L 226.967,473.541 L 226.967,470.814 L 244.294,470.814 L 244.294,467.123 L 241.567,467.123 L 241.567,463.755 L 245.899,463.755 L 249.91,460.545 L 249.268,457.497 L 270.927,457.497 L 270.927,466.322 L 276.543,466.322 L 276.543,461.187 L 286.811,461.187 L 286.811,468.408 L 294.351,468.408 L 294.351,463.113 L 300.497,463.113 L 300.497,469.851 L 309.381,477.515 L 312.642,477.515 L 312.642,471.713 L 317.615,471.713 L 317.615,477.355 L 320.985,479.478 L 330.932,479.478 L 328.365,475.466 L 324.674,475.466 L 324.674,472.579 L 330.29,472.579 L 335.103,478.996 L 342.323,478.996 L 342.323,475.628 L 333.659,467.123 L 331.895,469.21 L 326.6,469.21 L 326.6,467.123 L 330.611,467.123 L 330.611,463.915 L 314.086,463.915 L 314.086,467.123 L 309.433,467.123 L 309.433,464.878 L 311.358,464.878 L 311.519,463.273 L 304.619,454.609 L 295.154,454.609 L 286.33,446.908 L 261.462,446.908 L 243.171,437.281 L 246.059,431.986 L 262.103,440.971 L 289.057,440.971 L 297.721,448.833 L 306.064,448.833 L 315.53,457.817 L 330.45,457.817 C 330.45,457.817 331.573,459.583 333.82,459.262 L 333.82,459.262 C 336.065,458.941 340.879,459.743 342.162,461.187 L 342.162,461.187 C 343.446,462.632 345.853,463.594 346.815,463.594 L 346.815,463.594 C 347.778,463.594 351.308,463.273 353.875,466.803 L 353.875,466.803 C 356.441,470.333 359.811,475.788 367.512,475.788 L 367.512,475.788 L 372.164,475.788 L 372.164,470.814 L 374.411,470.814 L 374.411,475.466 C 374.411,475.466 375.854,477.392 376.978,476.429 L 376.978,476.429 C 378.101,475.466 377.941,474.504 379.706,475.788 L 379.706,475.788 C 381.47,477.071 383.396,477.874 383.556,476.429 L 383.556,476.429 C 383.716,474.986 383.556,473.221 383.556,473.221 L 383.556,473.221 L 380.187,473.221 L 380.187,470.974 L 383.556,470.974 L 383.556,467.765 L 372.646,467.765 L 372.646,465.84 L 388.048,465.84 L 388.048,478.034 L 428.8,478.034 C 428.8,478.034 433.131,476.59 441.634,476.59 L 441.634,476.59 L 460.887,476.59 L 460.887,494.765 L 464.577,494.765 L 464.577,476.59 L 540.898,476.59 L 540.898,672.01 L 110.007,672.01 z"
         id="path3102" />
    </clipPath>
    <clipPath
       clipPathUnits="userSpaceOnUse"
       id="clipPath3096">
      <path
         d="M 310.999,647.127 L 314.235,647.127 L 314.235,650.363 L 310.999,650.363 L 310.999,647.127 z"
         id="path3098" />
    </clipPath>
    <clipPath
       clipPathUnits="userSpaceOnUse"
       id="clipPath3092">
      <path
         d="M 110.007,672.01 L 110.007,459.066 C 129.456,458.969 235.309,459.102 235.309,459.102 L 235.309,459.102 L 235.309,462.632 L 219.748,462.632 L 219.748,473.541 L 226.967,473.541 L 226.967,470.814 L 244.294,470.814 L 244.294,467.123 L 241.567,467.123 L 241.567,463.755 L 245.899,463.755 L 249.91,460.545 L 249.268,457.497 L 270.927,457.497 L 270.927,466.322 L 276.543,466.322 L 276.543,461.187 L 286.811,461.187 L 286.811,468.408 L 294.351,468.408 L 294.351,463.113 L 300.497,463.113 L 300.497,469.851 L 309.381,477.515 L 312.642,477.515 L 312.642,471.713 L 317.615,471.713 L 317.615,477.355 L 320.985,479.478 L 330.932,479.478 L 328.365,475.466 L 324.674,475.466 L 324.674,472.579 L 330.29,472.579 L 335.103,478.996 L 342.323,478.996 L 342.323,475.628 L 333.659,467.123 L 331.895,469.21 L 326.6,469.21 L 326.6,467.123 L 330.611,467.123 L 330.611,463.915 L 314.086,463.915 L 314.086,467.123 L 309.433,467.123 L 309.433,464.878 L 311.358,464.878 L 311.519,463.273 L 304.619,454.609 L 295.154,454.609 L 286.33,446.908 L 261.462,446.908 L 243.171,437.281 L 246.059,431.986 L 262.103,440.971 L 289.057,440.971 L 297.721,448.833 L 306.064,448.833 L 315.53,457.817 L 330.45,457.817 C 330.45,457.817 331.573,459.583 333.82,459.262 L 333.82,459.262 C 336.065,458.941 340.879,459.743 342.162,461.187 L 342.162,461.187 C 343.446,462.632 345.853,463.594 346.815,463.594 L 346.815,463.594 C 347.778,463.594 351.308,463.273 353.875,466.803 L 353.875,466.803 C 356.441,470.333 359.811,475.788 367.512,475.788 L 367.512,475.788 L 372.164,475.788 L 372.164,470.814 L 374.411,470.814 L 374.411,475.466 C 374.411,475.466 375.854,477.392 376.978,476.429 L 376.978,476.429 C 378.101,475.466 377.941,474.504 379.706,475.788 L 379.706,475.788 C 381.47,477.071 383.396,477.874 383.556,476.429 L 383.556,476.429 C 383.716,474.986 383.556,473.221 383.556,473.221 L 383.556,473.221 L 380.187,473.221 L 380.187,470.974 L 383.556,470.974 L 383.556,467.765 L 372.646,467.765 L 372.646,465.84 L 388.048,465.84 L 388.048,478.034 L 428.8,478.034 C 428.8,478.034 433.131,476.59 441.634,476.59 L 441.634,476.59 L 460.887,476.59 L 460.887,494.765 L 464.577,494.765 L 464.577,476.59 L 540.898,476.59 L 540.898,672.01 L 110.007,672.01 z"
         id="path3094" />
    </clipPath>
    <clipPath
       clipPathUnits="userSpaceOnUse"
       id="clipPath3088">
      <path
         d="M 336.575,641.143 L 339.811,641.143 L 339.811,644.379 L 336.575,644.379 L 336.575,641.143 z"
         id="path3090" />
    </clipPath>
    <clipPath
       clipPathUnits="userSpaceOnUse"
       id="clipPath3084">
      <path
         d="M 110.007,672.01 L 110.007,459.066 C 129.456,458.969 235.309,459.102 235.309,459.102 L 235.309,459.102 L 235.309,462.632 L 219.748,462.632 L 219.748,473.541 L 226.967,473.541 L 226.967,470.814 L 244.294,470.814 L 244.294,467.123 L 241.567,467.123 L 241.567,463.755 L 245.899,463.755 L 249.91,460.545 L 249.268,457.497 L 270.927,457.497 L 270.927,466.322 L 276.543,466.322 L 276.543,461.187 L 286.811,461.187 L 286.811,468.408 L 294.351,468.408 L 294.351,463.113 L 300.497,463.113 L 300.497,469.851 L 309.381,477.515 L 312.642,477.515 L 312.642,471.713 L 317.615,471.713 L 317.615,477.355 L 320.985,479.478 L 330.932,479.478 L 328.365,475.466 L 324.674,475.466 L 324.674,472.579 L 330.29,472.579 L 335.103,478.996 L 342.323,478.996 L 342.323,475.628 L 333.659,467.123 L 331.895,469.21 L 326.6,469.21 L 326.6,467.123 L 330.611,467.123 L 330.611,463.915 L 314.086,463.915 L 314.086,467.123 L 309.433,467.123 L 309.433,464.878 L 311.358,464.878 L 311.519,463.273 L 304.619,454.609 L 295.154,454.609 L 286.33,446.908 L 261.462,446.908 L 243.171,437.281 L 246.059,431.986 L 262.103,440.971 L 289.057,440.971 L 297.721,448.833 L 306.064,448.833 L 315.53,457.817 L 330.45,457.817 C 330.45,457.817 331.573,459.583 333.82,459.262 L 333.82,459.262 C 336.065,458.941 340.879,459.743 342.162,461.187 L 342.162,461.187 C 343.446,462.632 345.853,463.594 346.815,463.594 L 346.815,463.594 C 347.778,463.594 351.308,463.273 353.875,466.803 L 353.875,466.803 C 356.441,470.333 359.811,475.788 367.512,475.788 L 367.512,475.788 L 372.164,475.788 L 372.164,470.814 L 374.411,470.814 L 374.411,475.466 C 374.411,475.466 375.854,477.392 376.978,476.429 L 376.978,476.429 C 378.101,475.466 377.941,474.504 379.706,475.788 L 379.706,475.788 C 381.47,477.071 383.396,477.874 383.556,476.429 L 383.556,476.429 C 383.716,474.986 383.556,473.221 383.556,473.221 L 383.556,473.221 L 380.187,473.221 L 380.187,470.974 L 383.556,470.974 L 383.556,467.765 L 372.646,467.765 L 372.646,465.84 L 388.048,465.84 L 388.048,478.034 L 428.8,478.034 C 428.8,478.034 433.131,476.59 441.634,476.59 L 441.634,476.59 L 460.887,476.59 L 460.887,494.765 L 464.577,494.765 L 464.577,476.59 L 540.898,476.59 L 540.898,672.01 L 110.007,672.01 z"
         id="path3086" />
    </clipPath>
    <clipPath
       clipPathUnits="userSpaceOnUse"
       id="clipPath3080">
      <path
         d="M 107.717,409.28 L 542.835,409.28 L 542.835,759.684 L 107.717,759.684 L 107.717,409.28 z"
         id="path3082" />
    </clipPath>
    <clipPath
       clipPathUnits="userSpaceOnUse"
       id="clipPath3076">
      <path
         d="M -32767,32767 L 32767,32767 L 32767,-32767 L -32767,-32767 L -32767,32767 z"
         id="path3078" />
    </clipPath>
    <clipPath
       clipPathUnits="userSpaceOnUse"
       id="clipPath3072">
      <path
         d="M 103.651,133.406 C 103.352,133.406 103.089,133.143 103.089,132.844 L 103.089,132.844 L 103.089,130.394 C 103.089,130.094 103.352,129.831 103.651,129.831 L 103.651,129.831 L 115.94,129.831 C 116.24,129.831 116.502,130.094 116.502,130.394 L 116.502,130.394 L 116.502,132.844 C 116.502,133.143 116.24,133.406 115.94,133.406 L 115.94,133.406 L 103.651,133.406 z"
         id="path3074" />
    </clipPath>
    <clipPath
       clipPathUnits="userSpaceOnUse"
       id="clipPath3068">
      <path
         d="M -32767,32767 L 32767,32767 L 32767,-32767 L -32767,-32767 L -32767,32767 z"
         id="path3070" />
    </clipPath>
    <clipPath
       clipPathUnits="userSpaceOnUse"
       id="clipPath3064">
      <path
         d="M 101.353,127.817 L 118.507,127.817 L 118.507,135.691 L 101.353,135.691 L 101.353,127.817 z"
         id="path3066" />
    </clipPath>
    <clipPath
       clipPathUnits="userSpaceOnUse"
       id="clipPath3060">
      <path
         d="M 110.007,672.01 L 110.007,459.066 C 129.456,458.969 235.309,459.102 235.309,459.102 L 235.309,459.102 L 235.309,462.632 L 219.748,462.632 L 219.748,473.541 L 226.967,473.541 L 226.967,470.814 L 244.294,470.814 L 244.294,467.123 L 241.567,467.123 L 241.567,463.755 L 245.899,463.755 L 249.91,460.545 L 249.268,457.497 L 270.927,457.497 L 270.927,466.322 L 276.543,466.322 L 276.543,461.187 L 286.811,461.187 L 286.811,468.408 L 294.351,468.408 L 294.351,463.113 L 300.497,463.113 L 300.497,469.851 L 309.381,477.515 L 312.642,477.515 L 312.642,471.713 L 317.615,471.713 L 317.615,477.355 L 320.985,479.478 L 330.932,479.478 L 328.365,475.466 L 324.674,475.466 L 324.674,472.579 L 330.29,472.579 L 335.103,478.996 L 342.323,478.996 L 342.323,475.628 L 333.659,467.123 L 331.895,469.21 L 326.6,469.21 L 326.6,467.123 L 330.611,467.123 L 330.611,463.915 L 314.086,463.915 L 314.086,467.123 L 309.433,467.123 L 309.433,464.878 L 311.358,464.878 L 311.519,463.273 L 304.619,454.609 L 295.154,454.609 L 286.33,446.908 L 261.462,446.908 L 243.171,437.281 L 246.059,431.986 L 262.103,440.971 L 289.057,440.971 L 297.721,448.833 L 306.064,448.833 L 315.53,457.817 L 330.45,457.817 C 330.45,457.817 331.573,459.583 333.82,459.262 L 333.82,459.262 C 336.065,458.941 340.879,459.743 342.162,461.187 L 342.162,461.187 C 343.446,462.632 345.853,463.594 346.815,463.594 L 346.815,463.594 C 347.778,463.594 351.308,463.273 353.875,466.803 L 353.875,466.803 C 356.441,470.333 359.811,475.788 367.512,475.788 L 367.512,475.788 L 372.164,475.788 L 372.164,470.814 L 374.411,470.814 L 374.411,475.466 C 374.411,475.466 375.854,477.392 376.978,476.429 L 376.978,476.429 C 378.101,475.466 377.941,474.504 379.706,475.788 L 379.706,475.788 C 381.47,477.071 383.396,477.874 383.556,476.429 L 383.556,476.429 C 383.716,474.986 383.556,473.221 383.556,473.221 L 383.556,473.221 L 380.187,473.221 L 380.187,470.974 L 383.556,470.974 L 383.556,467.765 L 372.646,467.765 L 372.646,465.84 L 388.048,465.84 L 388.048,478.034 L 428.8,478.034 C 428.8,478.034 433.131,476.59 441.634,476.59 L 441.634,476.59 L 460.887,476.59 L 460.887,494.765 L 464.577,494.765 L 464.577,476.59 L 540.898,476.59 L 540.898,672.01 L 110.007,672.01 z"
         id="path3062" />
    </clipPath>
    <clipPath
       clipPathUnits="userSpaceOnUse"
       id="clipPath3056">
      <path
         d="M 107.717,409.28 L 542.835,409.28 L 542.835,759.684 L 107.717,759.684 L 107.717,409.28 z"
         id="path3058" />
    </clipPath>
    <clipPath
       clipPathUnits="userSpaceOnUse"
       id="clipPath3052">
      <path
         d="M 0,0 L 595.276,0 L 595.276,935.433 L 0,935.433 L 0,0 z"
         id="path3054" />
    </clipPath>
    <clipPath
       clipPathUnits="userSpaceOnUse"
       id="clipPath3048">
      <path
         d="M 0,801.355 L 178.771,801.355 L 178.771,935.433 L 0,935.433 L 0,801.355 z"
         id="path3050" />
    </clipPath>
    <clipPath
       clipPathUnits="userSpaceOnUse"
       id="clipPath3044">
      <path
         d="M 182.053,801.355 L 360.781,801.355 L 360.781,935.433 L 182.053,935.433 L 182.053,801.355 z"
         id="path3046" />
    </clipPath>
    <clipPath
       clipPathUnits="userSpaceOnUse"
       id="clipPath3040">
      <path
         d="M 364.063,801.355 L 542.835,801.355 L 542.835,935.433 L 364.063,935.433 L 364.063,801.355 z"
         id="path3042" />
    </clipPath>
    <clipPath
       clipPathUnits="userSpaceOnUse"
       id="clipPath3036">
      <path
         d="M 0,0 L 595.276,0 L 595.276,935.433 L 0,935.433 L 0,0 z"
         id="path3038" />
    </clipPath>
    <clipPath
       clipPathUnits="userSpaceOnUse"
       id="clipPath3032">
      <path
         d="M -11.9415,808.646 L 132.586,808.646 L 132.586,666.276 L -11.9415,666.276 L -11.9415,808.646 z"
         id="path3034" />
    </clipPath>
    <linearGradient
       x1="0"
       y1="0"
       x2="1"
       y2="0"
       gradientUnits="userSpaceOnUse"
       gradientTransform="matrix(140.08995,0,0,-140.08995,-8.503952,667.2756)"
       spreadMethod="pad"
       id="linearGradient3026">
      <stop
         style="stop-opacity:1;stop-color:#ffffff"
         offset="0"
         id="stop3028" />
      <stop
         style="stop-opacity:0;stop-color:#ffffff"
         offset="1"
         id="stop3030" />
    </linearGradient>
    <mask
       maskUnits="userSpaceOnUse"
       x="0"
       y="0"
       width="1"
       height="1"
       id="mask3014">
      <g
         id="g3016">
        <g
           id="g3018">
          <g
             id="g3020">
            <g
               id="g3022">
              <path
                 d="M -32768,32767 L 32765.8,32767 L 32765.8,-32294.6 L -32768,-32294.6 L -32768,32767 z"
                 style="fill:url(#linearGradient11375);stroke:none"
                 id="path3024" />
            </g>
          </g>
        </g>
      </g>
    </mask>
    <clipPath
       clipPathUnits="userSpaceOnUse"
       id="clipPath3010">
      <path
         d="M -11.9415,808.646 L 132.586,808.646 L 132.586,666.276 L -11.9415,666.276 L -11.9415,808.646 z"
         id="path3012" />
    </clipPath>
    <clipPath
       clipPathUnits="userSpaceOnUse"
       id="clipPath3006">
      <path
         d="M 537.583,802.354 L 598.713,802.354 L 598.713,659.984 L 537.583,659.984 L 537.583,802.354 z"
         id="path3008" />
    </clipPath>
    <linearGradient
       x1="0"
       y1="0"
       x2="1"
       y2="0"
       gradientUnits="userSpaceOnUse"
       gradientTransform="matrix(-56.692917,0,0,56.692917,595.27556,801.35434)"
       spreadMethod="pad"
       id="linearGradient3000">
      <stop
         style="stop-opacity:1;stop-color:#ffffff"
         offset="0"
         id="stop3002" />
      <stop
         style="stop-opacity:0;stop-color:#ffffff"
         offset="1"
         id="stop3004" />
    </linearGradient>
    <mask
       maskUnits="userSpaceOnUse"
       x="0"
       y="0"
       width="1"
       height="1"
       id="mask2988">
      <g
         id="g2990">
        <g
           id="g2992">
          <g
             id="g2994">
            <g
               id="g2996">
              <path
                 d="M -32179,32767 L 32767,32767 L 32767,-31771.7 L -32179,-31771.7 L -32179,32767 z"
                 style="fill:url(#linearGradient11427);stroke:none"
                 id="path2998" />
            </g>
          </g>
        </g>
      </g>
    </mask>
    <clipPath
       clipPathUnits="userSpaceOnUse"
       id="clipPath2984">
      <path
         d="M 537.583,802.354 L 598.713,802.354 L 598.713,659.984 L 537.583,659.984 L 537.583,802.354 z"
         id="path2986" />
    </clipPath>
    <inkscape:perspective
       sodipodi:type="inkscape:persp3d"
       inkscape:vp_x="0 : 526.18109 : 1"
       inkscape:vp_y="0 : 1000 : 0"
       inkscape:vp_z="744.09448 : 526.18109 : 1"
       inkscape:persp3d-origin="372.04724 : 350.78739 : 1"
       id="perspective3696" />
    <inkscape:perspective
       sodipodi:type="inkscape:persp3d"
       inkscape:vp_x="0 : 526.18109 : 1"
       inkscape:vp_y="0 : 1000 : 0"
       inkscape:vp_z="744.09448 : 526.18109 : 1"
       inkscape:persp3d-origin="372.04724 : 350.78739 : 1"
       id="perspective3698" />
    <inkscape:perspective
       sodipodi:type="inkscape:persp3d"
       inkscape:vp_x="0 : 526.18109 : 1"
       inkscape:vp_y="0 : 1000 : 0"
       inkscape:vp_z="744.09448 : 526.18109 : 1"
       inkscape:persp3d-origin="372.04724 : 350.78739 : 1"
       id="perspective3700" />
    <inkscape:perspective
       sodipodi:type="inkscape:persp3d"
       inkscape:vp_x="0 : 526.18109 : 1"
       inkscape:vp_y="0 : 1000 : 0"
       inkscape:vp_z="744.09448 : 526.18109 : 1"
       inkscape:persp3d-origin="372.04724 : 350.78739 : 1"
       id="perspective3702" />
    <inkscape:perspective
       sodipodi:type="inkscape:persp3d"
       inkscape:vp_x="0 : 526.18109 : 1"
       inkscape:vp_y="0 : 1000 : 0"
       inkscape:vp_z="744.09448 : 526.18109 : 1"
       inkscape:persp3d-origin="372.04724 : 350.78739 : 1"
       id="perspective3704" />
    <inkscape:perspective
       id="perspective3706"
       inkscape:persp3d-origin="372.04724 : 350.78739 : 1"
       inkscape:vp_z="744.09448 : 526.18109 : 1"
       inkscape:vp_y="0 : 1000 : 0"
       inkscape:vp_x="0 : 526.18109 : 1"
       sodipodi:type="inkscape:persp3d" />
    <inkscape:perspective
       sodipodi:type="inkscape:persp3d"
       inkscape:vp_x="0 : 526.18109 : 1"
       inkscape:vp_y="0 : 1000 : 0"
       inkscape:vp_z="744.09448 : 526.18109 : 1"
       inkscape:persp3d-origin="372.04724 : 350.78739 : 1"
       id="perspective2976" />
    <inkscape:perspective
       sodipodi:type="inkscape:persp3d"
       inkscape:vp_x="0 : 526.18109 : 1"
       inkscape:vp_y="0 : 1000 : 0"
       inkscape:vp_z="744.09448 : 526.18109 : 1"
       inkscape:persp3d-origin="372.04724 : 350.78739 : 1"
       id="perspective2974" />
    <inkscape:perspective
       sodipodi:type="inkscape:persp3d"
       inkscape:vp_x="0 : 526.18109 : 1"
       inkscape:vp_y="0 : 1000 : 0"
       inkscape:vp_z="744.09448 : 526.18109 : 1"
       inkscape:persp3d-origin="372.04724 : 350.78739 : 1"
       id="perspective2972" />
    <inkscape:perspective
       sodipodi:type="inkscape:persp3d"
       inkscape:vp_x="0 : 526.18109 : 1"
       inkscape:vp_y="0 : 1000 : 0"
       inkscape:vp_z="744.09448 : 526.18109 : 1"
       inkscape:persp3d-origin="372.04724 : 350.78739 : 1"
       id="perspective2970" />
    <inkscape:perspective
       sodipodi:type="inkscape:persp3d"
       inkscape:vp_x="0 : 526.18109 : 1"
       inkscape:vp_y="0 : 1000 : 0"
       inkscape:vp_z="744.09448 : 526.18109 : 1"
       inkscape:persp3d-origin="372.04724 : 350.78739 : 1"
       id="perspective2968" />
    <inkscape:perspective
       id="perspective2966"
       inkscape:persp3d-origin="372.04724 : 350.78739 : 1"
       inkscape:vp_z="744.09448 : 526.18109 : 1"
       inkscape:vp_y="0 : 1000 : 0"
       inkscape:vp_x="0 : 526.18109 : 1"
       sodipodi:type="inkscape:persp3d" />
    <inkscape:perspective
       sodipodi:type="inkscape:persp3d"
       inkscape:vp_x="0 : 526.18109 : 1"
       inkscape:vp_y="0 : 1000 : 0"
       inkscape:vp_z="744.09448 : 526.18109 : 1"
       inkscape:persp3d-origin="372.04724 : 350.78739 : 1"
       id="perspective2452" />
    <inkscape:perspective
       sodipodi:type="inkscape:persp3d"
       inkscape:vp_x="0 : 526.18109 : 1"
       inkscape:vp_y="0 : 1000 : 0"
       inkscape:vp_z="744.09448 : 526.18109 : 1"
       inkscape:persp3d-origin="372.04724 : 350.78739 : 1"
       id="perspective3382" />
    <inkscape:perspective
       sodipodi:type="inkscape:persp3d"
       inkscape:vp_x="0 : 526.18109 : 1"
       inkscape:vp_y="0 : 1000 : 0"
       inkscape:vp_z="744.09448 : 526.18109 : 1"
       inkscape:persp3d-origin="372.04724 : 350.78739 : 1"
       id="perspective3380" />
    <inkscape:perspective
       sodipodi:type="inkscape:persp3d"
       inkscape:vp_x="0 : 526.18109 : 1"
       inkscape:vp_y="0 : 1000 : 0"
       inkscape:vp_z="744.09448 : 526.18109 : 1"
       inkscape:persp3d-origin="372.04724 : 350.78739 : 1"
       id="perspective3378" />
    <inkscape:perspective
       sodipodi:type="inkscape:persp3d"
       inkscape:vp_x="0 : 526.18109 : 1"
       inkscape:vp_y="0 : 1000 : 0"
       inkscape:vp_z="744.09448 : 526.18109 : 1"
       inkscape:persp3d-origin="372.04724 : 350.78739 : 1"
       id="perspective3375" />
    <inkscape:perspective
       sodipodi:type="inkscape:persp3d"
       inkscape:vp_x="0 : 526.18109 : 1"
       inkscape:vp_y="0 : 1000 : 0"
       inkscape:vp_z="744.09448 : 526.18109 : 1"
       inkscape:persp3d-origin="372.04724 : 350.78739 : 1"
       id="perspective3373" />
    <inkscape:perspective
       id="perspective3371"
       inkscape:persp3d-origin="372.04724 : 350.78739 : 1"
       inkscape:vp_z="744.09448 : 526.18109 : 1"
       inkscape:vp_y="0 : 1000 : 0"
       inkscape:vp_x="0 : 526.18109 : 1"
       sodipodi:type="inkscape:persp3d" />
  </defs>
  <sodipodi:namedview
     id="base"
     pagecolor="#ffffff"
     bordercolor="#666666"
     borderopacity="1.0"
     gridtolerance="10000"
     guidetolerance="10"
     objecttolerance="10"
     inkscape:pageopacity="0.0"
     inkscape:pageshadow="2"
     inkscape:zoom="2.7957874"
     inkscape:cx="70.144754"
     inkscape:cy="-52.779083"
     inkscape:document-units="px"
     inkscape:current-layer="capa1"
     showgrid="false"
     showborder="true"
     inkscape:window-width="1280"
     inkscape:window-height="752"
     inkscape:window-x="0"
     inkscape:window-y="0" />
  <metadata
     id="metadata7">
    <rdf:RDF>
      <cc:Work
         rdf:about="">
        <dc:format>image/svg+xml</dc:format>
        <dc:type
           rdf:resource="http://purl.org/dc/dcmitype/StillImage" />
      </cc:Work>
    </rdf:RDF>
  </metadata>
  <g
     inkscape:label="Capa 1"
     inkscape:groupmode="layer"
     id="capa1"
     transform="translate(-7.5505252e-2,1.9284061e-2)">
    <path
       d="M 46.075505,45.980716 L 46.075505,-0.019284061 L 0.075505252,-0.019284061 L 0.075505252,45.980716 L 46.075505,45.980716 z"
       style="fill:#ff6500;fill-opacity:1;fill-rule:nonzero;stroke:none"
       id="path5545" />
    <g
       id="g5547"
       transform="matrix(0,-5.9499973,-5.9106272,0,5.2331153,32.200516)"
       style="fill:#ffffff">
      <path
         d="M 0,0 L 0,-2.611 L 0.681,-2.611 L 0.681,-0.814 L 3.691,-0.814 L 3.691,0 L 0,0"
         style="fill:#ffffff;fill-opacity:1;fill-rule:nonzero;stroke:none"
         id="path5549" />
    </g>
    <g
       id="g5551"
       transform="matrix(0,-5.9499973,-5.9106272,0,27.259972,10.649626)"
       style="fill:#ffffff">
      <path
         d="M 0,0 L 0,0.585 C -0.554,0.661 -0.733,1.134 -0.721,1.644 L -1.274,1.644 L -1.274,0.737 L -3.622,0.737 L -3.622,0 L 0,0"
         style="fill:#ffffff;fill-opacity:1;fill-rule:nonzero;stroke:none"
         id="path5553" />
    </g>
    <path
       style="font-size:31px;font-style:normal;font-variant:normal;font-weight:bold;font-stretch:normal;text-align:start;line-height:100%;writing-mode:lr-tb;text-anchor:start;fill:#ffffff;fill-opacity:1;stroke:none;stroke-width:1px;stroke-linecap:butt;stroke-linejoin:miter;stroke-opacity:1;font-family:Helvetica Neue;-inkscape-font-specification:Helvetica Neue Bold"
       d="M 32.511443,21.331944 C 32.511438,20.959956 32.511438,20.515623 32.511443,19.998944 C 32.532104,19.461624 32.573438,18.913958 32.635443,18.355944 C 32.697437,17.797959 32.800771,17.250293 32.945443,16.712944 C 33.090104,16.15496 33.286437,15.658961 33.534443,15.224944 C 33.803103,14.790962 34.133769,14.439629 34.526443,14.170944 C 34.939769,13.902296 35.446101,13.767963 36.045443,13.767944 C 36.644767,13.767963 37.1511,13.902296 37.564443,14.170944 C 37.977766,14.439629 38.318765,14.790962 38.587443,15.224944 C 38.856098,15.658961 39.052431,16.15496 39.176443,16.712944 C 39.321097,17.250293 39.424431,17.797959 39.486443,18.355944 C 39.569097,18.913958 39.610431,19.461624 39.610443,19.998944 C 39.631097,20.515623 39.641431,20.959956 39.641443,21.331944 C 39.641431,21.951955 39.620764,22.706287 39.579443,23.594944 C 39.538097,24.462952 39.403764,25.310285 39.176443,26.136944 C 38.969765,26.94295 38.618432,27.635282 38.122443,28.213944 C 37.647099,28.792614 36.954767,29.081947 36.045443,29.081944 C 35.156768,29.081947 34.474769,28.792614 33.999443,28.213944 C 33.524103,27.635282 33.17277,26.94295 32.945443,26.136944 C 32.738771,25.310285 32.614771,24.462952 32.573443,23.594944 C 32.532104,22.706287 32.511438,21.951955 32.511443,21.331944 M 28.109443,21.331944 C 28.109442,23.501953 28.316108,25.320618 28.729443,26.787944 C 29.163441,28.234615 29.742107,29.391947 30.465443,30.259944 C 31.188772,31.127945 32.025771,31.747945 32.976443,32.119944 C 33.94777,32.491944 34.970769,32.677944 36.045443,32.677944 C 37.140766,32.677944 38.163765,32.491944 39.114443,32.119944 C 40.085763,31.747945 40.933096,31.127945 41.656443,30.259944 C 42.400428,29.391947 42.979094,28.234615 43.392443,26.787944 C 43.826426,25.320618 44.043426,23.501953 44.043443,21.331944 C 44.043426,19.223957 43.826426,17.456959 43.392443,16.030944 C 42.979094,14.584295 42.400428,13.426963 41.656443,12.558944 C 40.933096,11.690965 40.085763,11.070966 39.114443,10.698944 C 38.163765,10.326966 37.140766,10.140966 36.045443,10.140944 C 34.970769,10.140966 33.94777,10.326966 32.976443,10.698944 C 32.025771,11.070966 31.188772,11.690965 30.465443,12.558944 C 29.742107,13.426963 29.163441,14.584295 28.729443,16.030944 C 28.316108,17.456959 28.109442,19.223957 28.109443,21.331944"
       id="text5988" />
    <g
       id="g5469"
       transform="matrix(0,-1.25,-1.25,0,-280.49152,76.61696)">
      <path
         d="M 0,0 L 0,-439.453 L -140.635,-439.452 L -140.635,0 L 0,0"
         style="fill:#ffffff;fill-opacity:1;fill-rule:nonzero;stroke:none"
         id="path5471" />
    </g>
  </g>
</svg>
