<?xml version="1.0" encoding="UTF-8" standalone="no"?>
<!-- Created with Inkscape (http://www.inkscape.org/) -->

<svg
   xmlns:dc="http://purl.org/dc/elements/1.1/"
   xmlns:cc="http://creativecommons.org/ns#"
   xmlns:rdf="http://www.w3.org/1999/02/22-rdf-syntax-ns#"
   xmlns:svg="http://www.w3.org/2000/svg"
   xmlns="http://www.w3.org/2000/svg"
   xmlns:sodipodi="http://sodipodi.sourceforge.net/DTD/sodipodi-0.dtd"
   xmlns:inkscape="http://www.inkscape.org/namespaces/inkscape"
   width="64"
   height="64"
   id="svg21844"
   sodipodi:version="0.32"
   inkscape:version="0.48.5 r10040"
   sodipodi:docname="L10_Sud_barcelona.svg"
   inkscape:output_extension="org.inkscape.output.svg.inkscape"
   version="1.0">
  <defs
     id="defs21846">
    <inkscape:perspective
       sodipodi:type="inkscape:persp3d"
       inkscape:vp_x="0 : 32 : 1"
       inkscape:vp_y="0 : 1000 : 0"
       inkscape:vp_z="64 : 32 : 1"
       inkscape:persp3d-origin="32 : 21.333333 : 1"
       id="perspective21852" />
  </defs>
  <sodipodi:namedview
     id="base"
     pagecolor="#ffffff"
     bordercolor="#666666"
     borderopacity="1.0"
     inkscape:pageopacity="0.0"
     inkscape:pageshadow="2"
     inkscape:zoom="8.34375"
     inkscape:cx="58.593558"
     inkscape:cy="32.000001"
     inkscape:current-layer="layer1"
     showgrid="true"
     inkscape:document-units="px"
     inkscape:grid-bbox="true"
     inkscape:window-width="1280"
     inkscape:window-height="752"
     inkscape:window-x="0"
     inkscape:window-y="0"
     showguides="true"
     inkscape:guide-bbox="true"
     inkscape:window-maximized="0">
    <sodipodi:guide
       orientation="0,1"
       position="-12.639138,49.982047"
       id="guide2386" />
    <sodipodi:guide
       orientation="1,0"
       position="7.0055659,64.949907"
       id="guide2388" />
    <sodipodi:guide
       orientation="0,1"
       position="-17.694794,15.971275"
       id="guide2390" />
    <sodipodi:guide
       orientation="1,0"
       position="14.011132,65.187384"
       id="guide2392" />
    <sodipodi:guide
       orientation="1,0"
       position="37.996289,59.725417"
       id="guide2394" />
    <sodipodi:guide
       orientation="1,0"
       position="23.985158,56.400742"
       id="guide2393" />
    <sodipodi:guide
       orientation="1,0"
       position="38.951311,56.329588"
       id="guide3165" />
    <sodipodi:guide
       orientation="1,0"
       position="61.003745,47.940075"
       id="guide3167" />
    <sodipodi:guide
       orientation="0,1"
       position="6.2322097,19.05618"
       id="guide3169" />
  </sodipodi:namedview>
  <metadata
     id="metadata21849">
    <rdf:RDF>
      <cc:Work
         rdf:about="">
        <dc:format>image/svg+xml</dc:format>
        <dc:type
           rdf:resource="http://purl.org/dc/dcmitype/StillImage" />
        <dc:title></dc:title>
      </cc:Work>
    </rdf:RDF>
  </metadata>
  <g
     id="layer1"
     inkscape:label="Layer 1"
     inkscape:groupmode="layer"
     transform="translate(-0.7873347,136.12828)">
    <rect
       style="opacity:1;fill:#00adef;fill-opacity:1;fill-rule:nonzero;stroke:none;stroke-width:7.08599996999999959;stroke-linecap:round;stroke-linejoin:round;stroke-miterlimit:4;stroke-dasharray:7.08600000000000030, 14.17200000000000060;stroke-dashoffset:0;stroke-opacity:1"
       id="rect21854"
       width="64"
       height="64"
       x="0.78733474"
       y="-136.12828" />
    <path
       style="font-size:43.06978226px;font-style:normal;font-variant:normal;font-weight:bold;font-stretch:normal;text-align:start;line-height:125%;writing-mode:lr-tb;text-anchor:start;fill:#ffffff;fill-opacity:1;stroke:none;font-family:Helvetica Neue;-inkscape-font-specification:Helvetica Neue Bold"
       d="m 7.9527824,-127.35799 0,30.933029 21.6228316,0 0,-5.718709 -14.900485,0 0,-25.21432 -6.7223466,0"
       id="text2382"
       inkscape:connector-curvature="0" />
    <path
       style="font-size:43.03677368px;font-style:normal;font-variant:normal;font-weight:bold;font-stretch:normal;text-align:start;line-height:125%;writing-mode:lr-tb;text-anchor:start;fill:#ffffff;fill-opacity:1;stroke:none;font-family:Helvetica Neue;-inkscape-font-specification:Helvetica Neue Bold"
       d="m 38.576815,-96.420013 0,-30.387597 -4.821248,0 c -0.170675,1.15765 -0.526225,2.12716 -1.066648,2.90853 -0.540446,0.78141 -1.208878,1.41811 -2.005298,1.91007 -0.767995,0.46308 -1.649756,0.7959 -2.645287,0.99845 -0.9671,0.17367 -1.976859,0.24602 -3.02928,0.21705 l 0,4.64497 7.509201,0 0,19.708527 6.05856,0"
       id="text22626"
       inkscape:connector-curvature="0" />
    <path
       style="font-size:43.19571686px;font-style:normal;font-variant:normal;font-weight:bold;font-stretch:normal;text-align:start;line-height:125%;writing-mode:lr-tb;text-anchor:start;fill:#ffffff;fill-opacity:1;stroke:none;font-family:Helvetica Neue;-inkscape-font-specification:Helvetica Neue Bold"
       d="m 45.933393,-111.92502 c -7e-6,-0.51682 -7e-6,-1.13413 0,-1.85196 0.02887,-0.74652 0.08664,-1.5074 0.173292,-2.28265 0.08664,-0.77523 0.231048,-1.53611 0.433229,-2.28266 0.202166,-0.77522 0.476544,-1.46432 0.823136,-2.0673 0.375456,-0.60295 0.837567,-1.09106 1.386333,-1.46434 0.577628,-0.37324 1.285234,-0.55987 2.122822,-0.5599 0.837564,3e-5 1.545171,0.18666 2.122823,0.5599 0.577624,0.37328 1.054176,0.86139 1.429656,1.46434 0.37545,0.60298 0.649827,1.29208 0.823135,2.0673 0.202158,0.74655 0.346567,1.50743 0.433229,2.28266 0.115511,0.77525 0.173275,1.53613 0.173292,2.28265 0.02886,0.71783 0.04331,1.33514 0.04332,1.85196 -1.7e-5,0.86139 -0.0289,1.9094 -0.08665,3.14402 -0.05778,1.20594 -0.245514,2.38317 -0.563199,3.53166 -0.288835,1.11979 -0.779827,2.08167 -1.472978,2.88561 -0.6643,0.80396 -1.631844,1.20594 -2.902636,1.20593 -1.241934,10e-6 -2.195037,-0.40197 -2.859312,-1.20593 -0.664293,-0.80394 -1.155285,-1.76582 -1.472979,-2.88561 -0.288827,-1.14849 -0.462118,-2.32572 -0.519875,-3.53166 -0.05777,-1.23462 -0.08665,-2.28263 -0.08665,-3.14402 m -6.151853,0 c -1e-6,3.01483 0.288819,5.54153 0.866459,7.58012 0.606517,2.00989 1.415212,3.61779 2.426083,4.82372 1.010862,1.20593 2.18058,2.067307 3.509155,2.584133 1.357443,0.516826 2.787097,0.77524 4.288968,0.77524 1.53073,0 2.960384,-0.258414 4.288969,-0.77524 1.357433,-0.516826 2.541592,-1.378203 3.552479,-2.584133 1.039728,-1.20593 1.848422,-2.81383 2.426082,-4.82372 0.606498,-2.03859 0.909759,-4.56529 0.909782,-7.58012 -2.3e-5,-2.92866 -0.303284,-5.3836 -0.909782,-7.36478 -0.57766,-2.00986 -1.386354,-3.61777 -2.426082,-4.82372 -1.010887,-1.2059 -2.195046,-2.06728 -3.552479,-2.58413 -1.328585,-0.5168 -2.758239,-0.77522 -4.288969,-0.77525 -1.501871,3e-5 -2.931525,0.25845 -4.288968,0.77525 -1.328575,0.51685 -2.498293,1.37823 -3.509155,2.58413 -1.010871,1.20595 -1.819566,2.81386 -2.426083,4.82372 -0.57764,1.98118 -0.86646,4.43612 -0.866459,7.36478"
       id="text2389"
       inkscape:connector-curvature="0" />
    <text
       xml:space="preserve"
       style="font-size:40px;font-style:normal;font-variant:normal;font-weight:normal;font-stretch:normal;line-height:125%;letter-spacing:0px;word-spacing:0px;fill:#ffffff;fill-opacity:1;stroke:none;font-family:Arial;-inkscape-font-specification:Arial"
       x="7.7929006"
       y="-81.993446"
       id="text2996"
       sodipodi:linespacing="125%"><tspan
         sodipodi:role="line"
         id="tspan2998"
         x="7.7929006"
         y="-81.993446"
         style="font-size:16px;font-weight:bold;line-height:125%;letter-spacing:-0.75px;fill:#ffffff;fill-opacity:1;-inkscape-font-specification:Arial Bold"
         dx="-1">Nord</tspan></text>
  </g>
</svg>
