<?xml version="1.0" encoding="UTF-8" standalone="no"?>
<!-- Generator: Adobe Illustrator 16.0.0, SVG Export Plug-In . SVG Version: 6.00 Build 0)  -->

<svg
   xmlns:dc="http://purl.org/dc/elements/1.1/"
   xmlns:cc="http://creativecommons.org/ns#"
   xmlns:rdf="http://www.w3.org/1999/02/22-rdf-syntax-ns#"
   xmlns:svg="http://www.w3.org/2000/svg"
   xmlns="http://www.w3.org/2000/svg"
   xmlns:sodipodi="http://sodipodi.sourceforge.net/DTD/sodipodi-0.dtd"
   xmlns:inkscape="http://www.inkscape.org/namespaces/inkscape"
   version="1.1"
   id="Capa_1"
   x="0px"
   y="0px"
   width="2902.68px"
   height="2902.68px"
   viewBox="0 0 2902.68 2902.68"
   enable-background="new 0 0 2902.68 2902.68"
   xml:space="preserve"
   inkscape:version="0.48.5 r10040"
   sodipodi:docname="L9_Sud_Barcelona.svg"><metadata
     id="metadata27"><rdf:RDF><cc:Work
         rdf:about=""><dc:format>image/svg+xml</dc:format><dc:type
           rdf:resource="http://purl.org/dc/dcmitype/StillImage" /><dc:title></dc:title></cc:Work></rdf:RDF></metadata><defs
     id="defs25" /><sodipodi:namedview
     pagecolor="#ffffff"
     bordercolor="#666666"
     borderopacity="1"
     objecttolerance="10"
     gridtolerance="10"
     guidetolerance="10"
     inkscape:pageopacity="0"
     inkscape:pageshadow="2"
     inkscape:window-width="1945"
     inkscape:window-height="1259"
     id="namedview23"
     showgrid="false"
     inkscape:zoom="0.081304176"
     inkscape:cx="-2084.7638"
     inkscape:cy="1451.34"
     inkscape:window-x="0"
     inkscape:window-y="0"
     inkscape:window-maximized="0"
     inkscape:current-layer="Capa_1" /><rect
     fill="#F1832D"
     width="2902.68"
     height="2902.68"
     id="rect3" /><g
     id="g7"><g
       id="g9"><path
         style="fill:#ffffff"
         inkscape:connector-curvature="0"
         id="path11"
         d="m 444.926,381.65 h 337.691 v 1254.28 h 750.265 v 284.458 H 444.926 V 381.65 z" /><path
         style="fill:#ffffff"
         inkscape:connector-curvature="0"
         id="path13"
         d="m 1839.609,1532.091 c 10.034,50.165 33.011,93.884 68.88,131.132 35.869,37.272 80.342,55.883 133.444,55.883 55.936,0 101.863,-16.141 137.732,-48.449 35.869,-32.283 64.591,-71.766 86.112,-118.447 21.521,-46.656 36.936,-96.535 46.267,-149.663 9.305,-53.128 15.413,-100.485 18.298,-142.125 l -4.573,-4.315 c -41.693,60.51 -90.532,103.735 -146.571,129.676 -56.039,25.941 -120.683,38.885 -193.954,38.885 -64.669,0 -127.882,-13.984 -189.665,-42.004 -61.783,-28.02 -114.21,-65.734 -157.305,-113.145 -40.236,-45.979 -69.711,-98.432 -88.373,-157.33 -18.688,-58.898 -28.02,-118.498 -28.02,-178.853 0,-77.561 12.554,-149.768 37.715,-216.567 25.134,-66.8 61.055,-124.996 107.763,-174.563 46.709,-49.567 102.384,-88.712 167.052,-117.459 64.67,-28.722 136.512,-43.095 215.555,-43.095 113.507,0 207.626,22.639 282.353,67.892 74.701,45.252 134.354,104.878 178.904,178.853 44.552,73.974 75.431,157.668 92.688,251.032 17.233,93.364 25.862,187.456 25.862,282.249 0,91.961 -10.787,184.961 -32.309,279.053 -21.547,94.092 -56.013,178.853 -103.397,254.281 -47.384,75.43 -108.413,136.824 -183.088,184.234 -74.677,47.383 -165.856,71.088 -273.542,71.088 -130.689,0 -240.532,-36.285 -329.556,-108.855 -89.05,-72.57 -142.178,-175.707 -159.384,-309.386 h 291.112 z m 218.934,-338.653 c 40.236,0 75.793,-7.511 106.672,-22.562 30.878,-15.049 56.377,-35.479 76.495,-61.263 20.118,-25.785 35.192,-55.545 45.253,-89.231 10.058,-33.686 15.102,-69.139 15.102,-106.412 0,-34.388 -5.407,-68.412 -16.168,-102.098 -10.787,-33.686 -26.59,-63.785 -47.41,-90.297 -20.846,-26.512 -46.344,-47.644 -76.495,-63.421 -30.177,-15.751 -64.669,-23.653 -103.448,-23.653 -37.352,0 -70.023,7.902 -98.043,23.653 -28.02,15.777 -52.088,36.57 -72.207,62.355 -20.117,25.784 -35.192,55.181 -45.252,88.14 -10.059,32.958 -15.075,66.645 -15.075,101.031 0,35.817 4.652,70.568 14.01,104.255 9.331,33.686 23.341,63.785 42.004,90.297 18.661,26.512 42.73,48.008 72.206,64.486 29.448,16.481 63.575,24.72 102.356,24.72 z" /></g></g><flowRoot
     xml:space="preserve"
     id="flowRoot3028"
     style="fill:black;stroke:none;stroke-opacity:1;stroke-width:1px;stroke-linejoin:miter;stroke-linecap:butt;fill-opacity:1;font-family:Bitstream Vera Sans;font-style:normal;font-weight:normal;font-size:40px;line-height:125%;letter-spacing:0px;word-spacing:0px"><flowRegion
       id="flowRegion3030"><rect
         id="rect3032"
         width="1008.5583"
         height="676.47205"
         x="-1734.2283"
         y="2177.01" /></flowRegion><flowPara
       id="flowPara3034"></flowPara></flowRoot><text
     xml:space="preserve"
     style="font-size:580px;font-style:normal;font-variant:normal;font-weight:bold;font-stretch:normal;line-height:125%;letter-spacing:-11px;word-spacing:0px;fill:#ffffff;fill-opacity:1;stroke:none;font-family:Arial;-inkscape-font-specification:Arial Bold"
     x="405.0813"
     y="2496.7966"
     id="text3036"
     sodipodi:linespacing="125%"><tspan
       sodipodi:role="line"
       id="tspan3038"
       x="405.0813"
       y="2496.7966"
       style="font-size:605px;letter-spacing:-20px;fill:#ffffff;fill-opacity:1"
       dx="0 0 -0.090000004">Nord</tspan></text>
<flowRoot
     xml:space="preserve"
     id="flowRoot3040"
     style="fill:black;stroke:none;stroke-opacity:1;stroke-width:1px;stroke-linejoin:miter;stroke-linecap:butt;fill-opacity:1;font-family:Arial;font-style:normal;font-weight:normal;font-size:144px;line-height:125%;letter-spacing:0px;word-spacing:0px;-inkscape-font-specification:Arial;font-stretch:normal;font-variant:normal"><flowRegion
       id="flowRegion3042"><rect
         id="rect3044"
         width="2287.7053"
         height="996.25879"
         x="-7724.0806"
         y="-12.299491" /></flowRegion><flowPara
       id="flowPara3046"></flowPara></flowRoot></svg>