<?xml version="1.0" encoding="utf-8"?>
<!-- Generator: Adobe Illustrator 16.0.0, SVG Export Plug-In . SVG Version: 6.00 Build 0)  -->
<!DOCTYPE svg PUBLIC "-//W3C//DTD SVG 1.1//EN" "http://www.w3.org/Graphics/SVG/1.1/DTD/svg11.dtd">
<svg version="1.1" id="Capa_1" xmlns="http://www.w3.org/2000/svg" xmlns:xlink="http://www.w3.org/1999/xlink" x="0px" y="0px"
	 width="2902.68px" height="2902.68px" viewBox="0 0 2902.68 2902.68" enable-background="new 0 0 2902.68 2902.68"
	 xml:space="preserve">
<rect fill="#F1832D" width="2902.68" height="2902.68"/>
<g>
	<g>
		<g>
			<path fill="#FFFFFF" d="M444.926,381.65h337.691v1254.28h750.265v284.458H444.926V381.65z"/>
			<path fill="#FFFFFF" d="M1839.609,1532.091c10.034,50.165,33.011,93.884,68.88,131.132
				c35.869,37.272,80.342,55.883,133.444,55.883c55.936,0,101.863-16.141,137.732-48.449
				c35.869-32.283,64.591-71.766,86.112-118.447c21.521-46.656,36.936-96.535,46.267-149.663
				c9.305-53.128,15.413-100.485,18.298-142.125l-4.573-4.315c-41.693,60.51-90.532,103.735-146.571,129.676
				s-120.683,38.885-193.954,38.885c-64.669,0-127.882-13.984-189.665-42.004s-114.21-65.734-157.305-113.145
				c-40.236-45.979-69.711-98.432-88.373-157.33c-18.688-58.898-28.02-118.498-28.02-178.853
				c0-77.561,12.554-149.768,37.715-216.567c25.134-66.8,61.055-124.996,107.763-174.563
				c46.709-49.567,102.384-88.712,167.052-117.459c64.67-28.722,136.512-43.095,215.555-43.095
				c113.507,0,207.626,22.639,282.353,67.892c74.701,45.252,134.354,104.878,178.904,178.853
				c44.552,73.974,75.431,157.668,92.688,251.032c17.233,93.364,25.862,187.456,25.862,282.249
				c0,91.961-10.787,184.961-32.309,279.053c-21.547,94.092-56.013,178.853-103.397,254.281
				c-47.384,75.43-108.413,136.824-183.088,184.234c-74.677,47.383-165.856,71.088-273.542,71.088
				c-130.689,0-240.532-36.285-329.556-108.855c-89.05-72.57-142.178-175.707-159.384-309.386H1839.609z M2058.543,1193.438
				c40.236,0,75.793-7.511,106.672-22.562c30.878-15.049,56.377-35.479,76.495-61.263c20.118-25.785,35.192-55.545,45.253-89.231
				c10.058-33.686,15.102-69.139,15.102-106.412c0-34.388-5.407-68.412-16.168-102.098c-10.787-33.686-26.59-63.785-47.41-90.297
				c-20.846-26.512-46.344-47.644-76.495-63.421c-30.177-15.751-64.669-23.653-103.448-23.653c-37.352,0-70.023,7.902-98.043,23.653
				c-28.02,15.777-52.088,36.57-72.207,62.355c-20.117,25.784-35.192,55.181-45.252,88.14
				c-10.059,32.958-15.075,66.645-15.075,101.031c0,35.817,4.652,70.568,14.01,104.255c9.331,33.686,23.341,63.785,42.004,90.297
				c18.661,26.512,42.73,48.008,72.206,64.486C1985.635,1185.199,2019.762,1193.438,2058.543,1193.438z"/>
		</g>
	</g>
	<g>
		<path fill="#FFFFFF" d="M537.861,2365.862c0,14.665,2.646,27.09,7.944,37.274c5.298,10.184,12.329,18.43,21.091,24.738
			c8.762,6.315,18.954,11.002,30.567,14.053c11.614,3.059,23.95,4.584,36.994,4.584c8.556,0,17.723-0.707,27.509-2.137
			c9.787-1.43,18.954-4.179,27.517-8.254c8.556-4.075,15.689-9.676,21.393-16.81c5.704-7.134,8.563-16.197,8.563-27.207
			c0-11.813-3.773-21.386-11.312-28.726c-7.546-7.332-17.428-13.545-29.654-18.645c-12.233-5.092-26.095-9.365-41.584-12.829
			c-15.49-3.464-31.187-7.436-47.083-11.916c-16.301-4.068-32.204-9.058-47.693-14.968c-15.49-5.902-29.352-13.537-41.578-22.91
			c-12.233-9.366-22.115-20.973-29.654-34.82c-7.546-13.847-11.312-30.95-11.312-51.319c0-22.395,4.79-41.843,14.37-58.335
			c9.58-16.492,22.115-30.243,37.605-41.238c15.49-10.994,33.021-19.145,52.594-24.436c19.565-5.291,39.131-7.944,58.704-7.944
			c22.83,0,44.738,2.55,65.733,7.642s39.646,13.338,55.955,24.746c16.301,11.407,29.249,25.977,38.829,43.692
			c9.58,17.723,14.37,39.212,14.37,64.466h-92.911c-0.818-13.043-3.574-23.84-8.261-32.402c-4.694-8.556-10.914-15.276-18.659-20.17
			c-7.752-4.893-16.721-8.356-26.92-10.397c-10.199-2.034-21.002-3.059-32.425-3.059c-7.752,0-15.498,0.818-23.25,2.446
			c-7.752,1.637-14.783,4.488-21.105,8.563s-11.525,9.271-15.601,15.593c-4.083,6.323-6.117,13.965-6.117,22.926
			c0,8.563,1.629,15.498,4.893,20.797c3.257,5.298,9.676,10.088,19.256,14.369c9.58,4.282,22.823,8.763,39.743,13.449
			c16.919,4.687,39.035,10.494,66.345,17.414c5.298,1.223,12.226,2.955,20.789,5.195s17.635,5.298,27.214,9.159
			c9.58,3.869,19.16,8.858,28.74,14.968c9.58,6.108,18.342,13.64,26.293,22.601c7.944,8.962,14.363,19.646,19.256,32.071
			s7.34,26.772,7.34,43.059c0,19.956-3.876,38.489-11.614,55.594c-7.745,17.104-19.256,31.864-34.54,44.281
			c-15.284,12.425-34.237,22.196-56.854,29.322c-22.624,7.119-48.807,10.686-78.556,10.686c-24.046,0-47.377-3.059-69.993-9.16
			c-22.624-6.109-42.491-15.475-59.602-28.106c-17.119-12.623-30.877-28.71-41.268-48.261
			c-10.391-19.543-15.387-42.756-14.974-69.64H537.861z"/>
		<path fill="#FFFFFF" d="M1156.683,2510.653h-82.536v-43.861l-1.798-0.162c-11.017,17.914-25.299,31.142-42.838,39.69
			c-17.539,8.549-35.49,12.822-53.839,12.822c-23.257,0-42.329-3.161-57.215-9.469c-14.886-6.316-26.618-15.078-35.181-26.279
			s-14.584-24.842-18.047-40.936c-3.471-16.095-5.203-33.921-5.203-53.479v-194.32h86.78v178.476c0,26.08,4.178,45.535,12.55,58.372
			s22.764,19.248,43.184,19.248c23.677,0,40.826-7.022,51.438-21.083s15.925-37.186,15.925-69.374V2194.66h86.78V2510.653z"/>
		<path fill="#FFFFFF" d="M1447.92,2470.093l-1.186,0.037c-10.199,17.155-23.655,29.617-40.369,37.377
			c-16.721,7.753-35.276,11.636-55.66,11.636c-24.061,0-44.96-4.687-62.698-14.053c-17.737-9.366-32.417-21.887-44.039-37.568
			c-11.621-15.682-20.391-33.699-26.301-54.068s-8.865-41.548-8.865-63.545c0-21.18,2.948-41.644,8.858-61.4
			c5.91-19.75,14.665-37.163,26.279-52.233s26.175-27.185,43.7-36.353c17.517-9.167,37.885-13.751,61.113-13.751
			c18.74,0,36.566,3.987,53.479,11.945c16.905,7.967,30.25,19.706,40.029,35.218l1.415,0.015v-158.954h86.78v436.259h-82.536
			V2470.093z M1446.506,2351.743c0-12.602-1.224-25.004-3.67-37.2c-2.447-12.195-6.618-22.866-12.528-32.02
			c-5.91-9.145-13.648-16.565-23.221-22.255c-9.573-5.688-21.282-8.541-35.129-8.541c-14.26,0-26.279,2.853-36.05,8.541
			c-9.779,5.689-17.62,13.213-23.522,22.564c-5.91,9.352-10.185,20.022-12.83,32.013c-2.653,11.997-3.972,24.495-3.972,37.509
			c0,12.196,1.422,24.393,4.274,36.589c2.852,12.203,7.436,23.08,13.751,32.631c6.308,9.551,14.252,17.273,23.825,23.169
			c9.572,5.896,21.083,8.843,34.525,8.843c14.252,0,26.168-2.845,35.741-8.533c9.573-5.689,17.215-13.316,22.918-22.875
			c5.704-9.55,9.771-20.427,12.218-32.623C1445.282,2377.358,1446.506,2364.757,1446.506,2351.743z"/>
	</g>
</g>
</svg>
