<?xml version="1.0" encoding="utf-8"?>
<!-- Generator: Adobe Illustrator 17.0.0, SVG Export Plug-In . SVG Version: 6.00 Build 0)  -->
<!DOCTYPE svg PUBLIC "-//W3C//DTD SVG 1.1//EN" "http://www.w3.org/Graphics/SVG/1.1/DTD/svg11.dtd">
<svg version="1.1" id="Capa_1" xmlns="http://www.w3.org/2000/svg" xmlns:xlink="http://www.w3.org/1999/xlink" x="0px" y="0px"
	 width="151px" height="70px" viewBox="0 0 151 70" enable-background="new 0 0 151 70" xml:space="preserve">
<g>
	<path fill="#D3202E" d="M52.77,33.659h0.776c0.517,0,1.229-0.274,1.229-1.099c0-0.841-0.599-1.115-1.229-1.115h-2.328v0.662
		l-2.992-2.991h5.384c1.989,0,4.172,0.486,4.172,2.895c0,1.034-0.614,1.875-1.52,2.328c1.229,0.355,1.989,1.423,1.989,2.732
		c0,0.696-0.129,1.261-0.356,1.714L52.77,33.659z M53.756,40.66h-5.545v-9.685l4.624,4.623h-1.617v2.652h2.409
		c0.599,0,1.1-0.145,1.374-0.484l2.054,2.053C56.23,40.45,55.05,40.66,53.756,40.66 M46.125,34.047h-2.829v-2.15h-0.033l-0.599,2.15
		h-2.246l1.277-4.931h4.43V34.047z M46.125,40.66h-2.829v-5.352h2.829V40.66z M40.838,40.66h-2.295l-1.489-5.352h2.232l0.388,1.504
		h0.032l0.388-1.504h2.215L40.838,40.66z M36.117,31.896h-0.032v2.15h-2.829v-4.931h4.428l1.278,4.931h-2.247L36.117,31.896z
		 M36.085,40.66h-2.829v-5.352h2.829V40.66z M31.913,31.704h-9.895v-2.588h9.895V31.704z M28.47,40.66h-3.008v-7.696h3.008V40.66z
		 M40.153,12.361c-12.505,0-22.642,10.135-22.642,22.639c0,12.505,10.137,22.64,22.642,22.64c12.503,0,22.639-10.135,22.639-22.64
		C62.792,22.496,52.656,12.361,40.153,12.361"/>
	<polygon fill="#D3202E" points="73.358,22.682 71.307,22.682 71.307,21.417 76.914,21.417 76.914,22.682 74.863,22.682 
		74.863,28.26 73.358,28.26 	"/>
	<path fill="#D3202E" d="M76.715,23.305h1.294v0.92h0.019c0.25-0.623,0.92-1.054,1.582-1.054c0.095,0,0.211,0.019,0.297,0.048v1.265
		c-0.125-0.029-0.326-0.048-0.489-0.048c-0.997,0-1.342,0.718-1.342,1.591v2.233h-1.361V23.305z"/>
	<path fill="#D3202E" d="M83.491,25.834c-0.231,0.201-0.71,0.211-1.132,0.288c-0.421,0.086-0.805,0.23-0.805,0.728
		c0,0.509,0.393,0.633,0.835,0.633c1.063,0,1.102-0.843,1.102-1.141V25.834z M80.347,24.828c0.077-1.275,1.218-1.658,2.329-1.658
		c0.987,0,2.175,0.22,2.175,1.409v2.578c0,0.45,0.049,0.901,0.173,1.102h-1.38c-0.048-0.153-0.087-0.316-0.096-0.479
		c-0.431,0.451-1.064,0.613-1.667,0.613c-0.94,0-1.687-0.469-1.687-1.485c0-1.122,0.843-1.39,1.687-1.505
		c0.833-0.124,1.61-0.096,1.61-0.652c0-0.584-0.403-0.671-0.882-0.671c-0.518,0-0.853,0.211-0.901,0.748H80.347z"/>
	<path fill="#D3202E" d="M85.851,23.305h1.294v0.69h0.029c0.345-0.556,0.939-0.824,1.514-0.824c1.447,0,1.811,0.815,1.811,2.042
		v3.047h-1.361v-2.799c0-0.814-0.239-1.217-0.871-1.217c-0.739,0-1.055,0.412-1.055,1.418v2.598h-1.361V23.305z"/>
	<path fill="#D3202E" d="M92.503,26.649c0.01,0.595,0.508,0.834,1.045,0.834c0.393,0,0.891-0.153,0.891-0.632
		c0-0.412-0.565-0.556-1.543-0.767c-0.786-0.173-1.572-0.451-1.572-1.323c0-1.265,1.093-1.591,2.157-1.591
		c1.082,0,2.079,0.365,2.185,1.581h-1.294c-0.038-0.526-0.441-0.67-0.93-0.67c-0.306,0-0.757,0.057-0.757,0.46
		c0,0.489,0.767,0.556,1.543,0.738c0.796,0.182,1.572,0.47,1.572,1.389c0,1.304-1.131,1.726-2.262,1.726
		c-1.15,0-2.271-0.432-2.329-1.745H92.503z"/>
	<path fill="#D3202E" d="M100.239,25.797c0-0.786-0.316-1.601-1.188-1.601c-0.891,0-1.179,0.796-1.179,1.601
		s0.306,1.571,1.188,1.571C99.952,27.368,100.239,26.602,100.239,25.797 M96.559,23.305h1.294v0.633h0.019
		c0.326-0.528,0.862-0.767,1.476-0.767c1.552,0,2.252,1.255,2.252,2.664c0,1.323-0.728,2.559-2.176,2.559
		c-0.594,0-1.159-0.259-1.485-0.747H97.92v2.357h-1.361V23.305z"/>
	<path fill="#D3202E" d="M104.73,27.368c0.93,0,1.207-0.795,1.207-1.582c0-0.795-0.277-1.591-1.207-1.591
		c-0.92,0-1.198,0.796-1.198,1.591C103.532,26.573,103.81,27.368,104.73,27.368 M104.73,23.17c1.562,0,2.568,1.035,2.568,2.616
		c0,1.572-1.006,2.607-2.568,2.607c-1.552,0-2.559-1.035-2.559-2.607C102.171,24.205,103.178,23.17,104.73,23.17"/>
	<path fill="#D3202E" d="M108.089,23.305h1.293v0.92h0.02c0.249-0.623,0.919-1.054,1.581-1.054c0.096,0,0.211,0.019,0.297,0.048
		v1.265c-0.124-0.029-0.326-0.048-0.489-0.048c-0.996,0-1.341,0.718-1.341,1.591v2.233h-1.361V23.305z"/>
	<path fill="#D3202E" d="M113.721,23.305h0.997v0.91h-0.997v2.454c0,0.46,0.115,0.575,0.575,0.575c0.144,0,0.278-0.01,0.422-0.039
		v1.064c-0.23,0.039-0.528,0.048-0.796,0.048c-0.834,0-1.562-0.191-1.562-1.178v-2.924h-0.824v-0.91h0.824v-1.486h1.361V23.305z"/>
	<path fill="#D3202E" d="M116.404,26.649c0.009,0.595,0.508,0.834,1.045,0.834c0.393,0,0.891-0.153,0.891-0.632
		c0-0.412-0.565-0.556-1.543-0.767c-0.786-0.173-1.572-0.451-1.572-1.323c0-1.265,1.092-1.591,2.157-1.591
		c1.083,0,2.079,0.365,2.184,1.581h-1.293c-0.039-0.526-0.441-0.67-0.93-0.67c-0.307,0-0.757,0.057-0.757,0.46
		c0,0.489,0.766,0.556,1.543,0.738c0.796,0.182,1.572,0.47,1.572,1.389c0,1.304-1.131,1.726-2.262,1.726
		c-1.15,0-2.272-0.432-2.329-1.745H116.404z"/>
	<polygon fill="#D3202E" points="71.844,31.64 73.962,31.64 75.562,36.346 75.581,36.346 77.096,31.64 79.214,31.64 79.214,38.483 
		77.805,38.483 77.805,33.634 77.786,33.634 76.108,38.483 74.949,38.483 73.272,33.682 73.252,33.682 73.252,38.483 71.844,38.483 
			"/>
	<path fill="#D3202E" d="M83.658,35.474c-0.125-0.69-0.422-1.055-1.083-1.055c-0.863,0-1.112,0.672-1.131,1.055H83.658z
		 M81.444,36.336c0.038,0.863,0.46,1.255,1.217,1.255c0.547,0,0.987-0.335,1.074-0.642h1.198c-0.384,1.17-1.198,1.668-2.32,1.668
		c-1.562,0-2.53-1.073-2.53-2.607c0-1.485,1.026-2.616,2.53-2.616c1.687,0,2.502,1.418,2.406,2.942H81.444z"/>
	<path fill="#D3202E" d="M87.411,33.528h0.997v0.91h-0.997v2.454c0,0.46,0.115,0.575,0.575,0.575c0.144,0,0.278-0.01,0.422-0.039
		v1.064c-0.23,0.039-0.527,0.048-0.795,0.048c-0.834,0-1.563-0.191-1.563-1.178v-2.924h-0.824v-0.91h0.824v-1.486h1.361V33.528z"/>
	<path fill="#D3202E" d="M89.077,33.528h1.294v0.92h0.019c0.25-0.623,0.92-1.054,1.582-1.054c0.095,0,0.211,0.019,0.297,0.048v1.265
		c-0.125-0.029-0.326-0.048-0.489-0.048c-0.997,0-1.342,0.718-1.342,1.591v2.233h-1.361V33.528z"/>
	<path fill="#D3202E" d="M95.123,37.592c0.93,0,1.207-0.795,1.207-1.582c0-0.795-0.277-1.591-1.207-1.591
		c-0.92,0-1.198,0.796-1.198,1.591C93.924,36.797,94.202,37.592,95.123,37.592 M95.123,33.394c1.562,0,2.568,1.035,2.568,2.616
		c0,1.572-1.006,2.607-2.568,2.607c-1.552,0-2.559-1.035-2.559-2.607C92.563,34.429,93.571,33.394,95.123,33.394"/>
	<path fill="#D3202E" d="M102.162,36.02c0-0.786-0.316-1.601-1.188-1.601c-0.891,0-1.179,0.796-1.179,1.601s0.306,1.571,1.188,1.571
		C101.875,37.591,102.162,36.825,102.162,36.02 M98.482,33.528h1.294v0.633h0.019c0.326-0.528,0.862-0.767,1.476-0.767
		c1.552,0,2.252,1.255,2.252,2.664c0,1.323-0.728,2.559-2.176,2.559c-0.594,0-1.159-0.259-1.485-0.747h-0.019v2.357h-1.361V33.528z"
		/>
	<path fill="#D3202E" d="M106.652,37.592c0.93,0,1.207-0.795,1.207-1.582c0-0.795-0.277-1.591-1.207-1.591
		c-0.92,0-1.198,0.796-1.198,1.591C105.454,36.797,105.732,37.592,106.652,37.592 M106.652,33.394c1.562,0,2.568,1.035,2.568,2.616
		c0,1.572-1.006,2.607-2.568,2.607c-1.552,0-2.559-1.035-2.559-2.607C104.093,34.429,105.1,33.394,106.652,33.394"/>
	<rect x="110.026" y="31.639" fill="#D3202E" width="1.361" height="6.843"/>
	<path fill="#D3202E" d="M112.397,33.528h1.361v4.955h-1.361V33.528z M113.758,32.761h-1.361V31.64h1.361V32.761z"/>
	<path fill="#D3202E" d="M116.453,33.528h0.997v0.91h-0.997v2.454c0,0.46,0.115,0.575,0.575,0.575c0.144,0,0.278-0.01,0.422-0.039
		v1.064c-0.23,0.039-0.527,0.048-0.795,0.048c-0.834,0-1.563-0.191-1.563-1.178v-2.924h-0.824v-0.91h0.824v-1.486h1.361V33.528z"/>
	<path fill="#D3202E" d="M121.179,36.058c-0.231,0.201-0.71,0.211-1.132,0.288c-0.421,0.086-0.805,0.23-0.805,0.728
		c0,0.509,0.394,0.633,0.835,0.633c1.063,0,1.102-0.843,1.102-1.141V36.058z M118.035,35.052c0.077-1.275,1.218-1.658,2.329-1.658
		c0.987,0,2.176,0.22,2.176,1.409v2.578c0,0.45,0.048,0.901,0.172,1.102h-1.38c-0.048-0.153-0.087-0.316-0.096-0.479
		c-0.431,0.451-1.064,0.613-1.667,0.613c-0.94,0-1.687-0.469-1.687-1.485c0-1.122,0.843-1.39,1.687-1.505
		c0.833-0.124,1.61-0.096,1.61-0.652c0-0.584-0.403-0.671-0.882-0.671c-0.518,0-0.853,0.211-0.901,0.748H118.035z"/>
	<path fill="#D3202E" d="M123.539,33.528h1.294v0.69h0.028c0.345-0.556,0.939-0.824,1.515-0.824c1.446,0,1.811,0.815,1.811,2.042
		v3.047h-1.361v-2.799c0-0.814-0.239-1.217-0.872-1.217c-0.738,0-1.054,0.412-1.054,1.418v2.598h-1.361V33.528z"/>
	<path fill="#D3202E" d="M130.192,36.872c0.01,0.595,0.508,0.834,1.045,0.834c0.393,0,0.891-0.153,0.891-0.632
		c0-0.412-0.565-0.556-1.543-0.767c-0.786-0.173-1.572-0.451-1.572-1.323c0-1.265,1.093-1.591,2.157-1.591
		c1.082,0,2.079,0.365,2.185,1.581h-1.294c-0.038-0.526-0.441-0.67-0.93-0.67c-0.306,0-0.757,0.057-0.757,0.46
		c0,0.489,0.767,0.556,1.543,0.738c0.796,0.182,1.572,0.47,1.572,1.389c0,1.304-1.131,1.726-2.262,1.726
		c-1.15,0-2.271-0.432-2.328-1.745H130.192z"/>
	<path fill="#D3202E" d="M74.048,44.642c-0.891,0-1.198,0.767-1.198,1.582c0,0.776,0.355,1.59,1.198,1.59
		c0.901,0,1.169-0.786,1.169-1.6C75.217,45.409,74.93,44.642,74.048,44.642 M75.237,48.073h-0.02
		c-0.316,0.537-0.872,0.767-1.504,0.767c-1.495,0-2.224-1.284-2.224-2.655c0-1.332,0.739-2.568,2.195-2.568
		c0.584,0,1.16,0.249,1.467,0.738h0.019v-2.492h1.361v6.843h-1.294V48.073z"/>
	<path fill="#D3202E" d="M80.844,45.697c-0.125-0.69-0.422-1.055-1.083-1.055c-0.863,0-1.112,0.672-1.131,1.055H80.844z
		 M78.63,46.559c0.038,0.863,0.46,1.255,1.217,1.255c0.547,0,0.987-0.335,1.074-0.642h1.198c-0.384,1.17-1.198,1.668-2.32,1.668
		c-1.562,0-2.53-1.073-2.53-2.607c0-1.485,1.026-2.616,2.53-2.616c1.687,0,2.502,1.418,2.406,2.942H78.63z"/>
	<path fill="#D3202E" d="M87.131,47.537h1.61c0.594,0,1.112-0.192,1.112-0.901c0-0.7-0.44-0.977-1.083-0.977h-1.639V47.537z
		 M87.131,44.633h1.524c0.527,0,0.92-0.24,0.92-0.814c0-0.653-0.498-0.787-1.035-0.787h-1.409V44.633z M85.627,41.863h3.219
		c1.304,0,2.186,0.422,2.186,1.697c0,0.67-0.335,1.14-0.93,1.428c0.834,0.239,1.255,0.881,1.255,1.734
		c0,1.39-1.178,1.984-2.414,1.984h-3.316V41.863z"/>
	<path fill="#D3202E" d="M95.227,46.281c-0.231,0.201-0.71,0.211-1.132,0.288c-0.421,0.086-0.805,0.23-0.805,0.728
		c0,0.509,0.393,0.633,0.835,0.633c1.063,0,1.102-0.843,1.102-1.141V46.281z M92.083,45.275C92.16,44,93.3,43.617,94.411,43.617
		c0.987,0,2.175,0.22,2.175,1.409v2.578c0,0.45,0.049,0.901,0.173,1.102h-1.38c-0.048-0.153-0.087-0.316-0.096-0.479
		c-0.431,0.451-1.064,0.613-1.667,0.613c-0.94,0-1.687-0.469-1.687-1.485c0-1.122,0.843-1.39,1.687-1.505
		c0.833-0.125,1.61-0.096,1.61-0.652c0-0.584-0.403-0.671-0.882-0.671c-0.518,0-0.853,0.211-0.901,0.748H92.083z"/>
	<path fill="#D3202E" d="M97.587,43.751h1.294v0.92H98.9c0.25-0.623,0.92-1.054,1.582-1.054c0.095,0,0.211,0.019,0.297,0.048v1.264
		c-0.125-0.028-0.326-0.047-0.489-0.047c-0.997,0-1.342,0.718-1.342,1.591v2.233h-1.361V43.751z"/>
	<path fill="#D3202E" d="M104.596,45.495c-0.087-0.555-0.441-0.853-1.006-0.853c-0.873,0-1.16,0.882-1.16,1.611
		c0,0.708,0.278,1.561,1.131,1.561c0.632,0,0.996-0.402,1.082-1.005h1.314c-0.173,1.312-1.083,2.031-2.387,2.031
		c-1.495,0-2.501-1.054-2.501-2.54c0-1.543,0.92-2.683,2.53-2.683c1.169,0,2.242,0.613,2.329,1.878H104.596z"/>
	<path fill="#D3202E" d="M109.995,45.697c-0.124-0.69-0.422-1.055-1.083-1.055c-0.862,0-1.111,0.672-1.131,1.055H109.995z
		 M107.781,46.559c0.039,0.863,0.46,1.255,1.218,1.255c0.546,0,0.987-0.335,1.073-0.642h1.198c-0.383,1.17-1.198,1.668-2.32,1.668
		c-1.562,0-2.53-1.073-2.53-2.607c0-1.485,1.026-2.616,2.53-2.616c1.687,0,2.502,1.418,2.406,2.942H107.781z"/>
	<rect x="112.095" y="41.863" fill="#D3202E" width="1.361" height="6.843"/>
	<path fill="#D3202E" d="M116.82,47.815c0.93,0,1.208-0.795,1.208-1.582c0-0.795-0.278-1.591-1.208-1.591
		c-0.92,0-1.198,0.796-1.198,1.591C115.621,47.02,115.899,47.815,116.82,47.815 M116.82,43.617c1.562,0,2.569,1.035,2.569,2.616
		c0,1.572-1.007,2.607-2.569,2.607c-1.552,0-2.559-1.035-2.559-2.607C114.26,44.652,115.268,43.617,116.82,43.617"/>
	<path fill="#D3202E" d="M120.179,43.751h1.294v0.69h0.028c0.345-0.556,0.939-0.824,1.515-0.824c1.447,0,1.811,0.815,1.811,2.042
		v3.047h-1.361v-2.799c0-0.814-0.24-1.217-0.872-1.217c-0.738,0-1.054,0.412-1.054,1.418v2.598h-1.361V43.751z"/>
	<path fill="#D3202E" d="M128.865,46.281c-0.23,0.201-0.709,0.211-1.131,0.288c-0.421,0.086-0.805,0.23-0.805,0.728
		c0,0.509,0.393,0.633,0.834,0.633c1.064,0,1.102-0.843,1.102-1.141V46.281z M125.722,45.275c0.076-1.275,1.217-1.658,2.329-1.658
		c0.987,0,2.175,0.22,2.175,1.409v2.578c0,0.45,0.048,0.901,0.173,1.102h-1.381c-0.048-0.153-0.086-0.316-0.095-0.479
		c-0.432,0.451-1.064,0.613-1.668,0.613c-0.939,0-1.686-0.469-1.686-1.485c0-1.122,0.842-1.39,1.686-1.505
		c0.834-0.125,1.61-0.096,1.61-0.652c0-0.584-0.402-0.671-0.882-0.671c-0.517,0-0.853,0.211-0.9,0.748H125.722z"/>
</g>
</svg>
