<?xml version="1.0" encoding="UTF-8" standalone="no"?>
<!-- Created with Inkscape (http://www.inkscape.org/) -->
<svg
   xmlns:dc="http://purl.org/dc/elements/1.1/"
   xmlns:cc="http://creativecommons.org/ns#"
   xmlns:rdf="http://www.w3.org/1999/02/22-rdf-syntax-ns#"
   xmlns:svg="http://www.w3.org/2000/svg"
   xmlns="http://www.w3.org/2000/svg"
   xmlns:sodipodi="http://sodipodi.sourceforge.net/DTD/sodipodi-0.dtd"
   xmlns:inkscape="http://www.inkscape.org/namespaces/inkscape"
   id="svg2"
   sodipodi:version="0.32"
   inkscape:version="0.46"
   width="46"
   height="46"
   xml:space="preserve"
   sodipodi:docname="TB.svg"
   inkscape:output_extension="org.inkscape.output.svg.inkscape"
   version="1.0"><metadata
     id="metadata7"><rdf:RDF><cc:Work
         rdf:about=""><dc:format>image/svg+xml</dc:format><dc:type
           rdf:resource="http://purl.org/dc/dcmitype/StillImage" /></cc:Work></rdf:RDF></metadata><defs
     id="defs5"><inkscape:perspective
       sodipodi:type="inkscape:persp3d"
       inkscape:vp_x="0 : 526.18109 : 1"
       inkscape:vp_y="0 : 1000 : 0"
       inkscape:vp_z="744.09448 : 526.18109 : 1"
       inkscape:persp3d-origin="372.04724 : 350.78739 : 1"
       id="perspective9" /><clipPath
       clipPathUnits="userSpaceOnUse"
       id="clipPath19"><path
         d="M 49.065,1214.02 L 746.73,1214.02 L 746.73,48.174 L 49.065,48.174 L 49.065,1214.02 z"
         id="path21" /></clipPath><clipPath
       clipPathUnits="userSpaceOnUse"
       id="clipPath47"><path
         d="M 118.229,624.27 L 118.23,582.73 C 118.23,578.554 118.537,576.104 121.111,573.529 L 146.222,548.445 C 147.788,546.879 150.085,547.321 150.085,549.486 L 150.085,592.276 C 150.085,596.735 150.237,598.247 151.979,599.989 L 152.381,600.364 C 153.157,601.139 156.476,602.847 159.219,600.103 L 167.078,592.166 C 169.834,589.41 172.335,588.899 174.946,591.511 L 180.832,597.362 C 183.341,599.871 182.642,602.234 179.911,604.965 L 174.822,610.072 C 169.595,615.299 168.46,619.586 168.46,626.65 L 168.46,660.847 C 168.46,666.764 169.557,674.282 173.179,677.854 C 177.922,682.533 180.395,688.362 180.397,693.596 L 180.395,1061.738 C 180.395,1073.691 182.236,1083.69 191.626,1093.081 L 219.003,1120.214 C 226.636,1127.847 230.599,1133.707 230.599,1146.87 L 230.599,1160.191 L 442.279,1160.12 C 452.087,1160.12 458.546,1155.263 458.546,1145.694 L 458.47,1057.574 C 458.47,1051.192 461.975,1045.276 473.28,1045.276 L 581.696,1045.46 C 589.232,1045.46 597.964,1038.297 597.964,1029.6 L 597.961,789.272 C 597.961,781.554 603.316,770.921 606.625,767.612 L 655.669,718.797 C 662.43,712.036 663.619,707.444 663.619,699.181 L 663.619,364.951 C 663.619,353.928 666.066,348.862 672.943,341.986 L 720.547,294.241 C 725.906,288.882 726.978,286.126 726.978,276.634 L 726.978,240.808 C 726.978,234.071 725.141,231.219 721.716,227.794 L 678.681,184.619 C 673.086,179.024 670.938,174.514 670.938,165.481 L 670.944,146.817 C 670.944,138.225 665.122,135.621 657.777,135.621 L 462.818,135.621 C 453.325,135.621 451.18,134.148 445.765,128.732 L 407.614,90.494 C 401.15,84.03 399.054,83.116 388.648,83.116 L 253.841,83.116 C 245.567,83.116 236.754,82.881 230.666,88.969 L 222.464,96.129 C 217.102,101.491 211.59,101.594 203.932,101.594 L 164.476,101.594 L 164.479,382.924 C 164.479,386.322 162.15,387.354 159.434,387.354 L 126.668,387.354 C 121.482,387.354 118.937,389.352 118.937,394.175 L 118.906,431.636 C 118.906,435.921 119.728,437.353 122.997,437.353 L 124.353,437.353 C 127.582,437.353 128.946,435.801 128.946,431.748 L 128.946,409.506 C 128.946,406.098 129.754,404.503 134.487,404.503 L 159.841,404.533 C 162.07,404.533 164.479,406.337 164.479,408.692 L 164.476,445.894 C 164.476,452.458 162.055,458.122 158.053,462.125 L 113.033,508.402 C 104.175,517.261 101.09,525.222 101.09,536.872 L 101.092,624.266 L 118.229,624.27"
         id="path49" /></clipPath><clipPath
       clipPathUnits="userSpaceOnUse"
       id="clipPath2079"><path
         d="M 592.832,584.321 L 604.175,584.321 L 604.175,572.979 L 592.832,572.979 L 592.832,584.321 z"
         id="path2081" /></clipPath><clipPath
       clipPathUnits="userSpaceOnUse"
       id="clipPath2117"><path
         d="M 586.018,546.58 L 597.447,546.58 L 597.447,535.151 L 586.018,535.151 L 586.018,546.58 z"
         id="path2119" /></clipPath><clipPath
       clipPathUnits="userSpaceOnUse"
       id="clipPath2163"><path
         d="M 720.985,1069.774 L 732.341,1069.774 L 732.341,1058.417 L 720.985,1058.417 L 720.985,1069.774 z"
         id="path2165" /></clipPath><clipPath
       clipPathUnits="userSpaceOnUse"
       id="clipPath2181"><path
         d="M 689.453,1074.524 L 700.81,1074.524 L 700.81,1063.167 L 689.453,1063.167 L 689.453,1074.524 z"
         id="path2183" /></clipPath><clipPath
       clipPathUnits="userSpaceOnUse"
       id="clipPath2199"><path
         d="M 658.86,1078.524 L 670.216,1078.524 L 670.216,1067.167 L 658.86,1067.167 L 658.86,1078.524 z"
         id="path2201" /></clipPath><clipPath
       clipPathUnits="userSpaceOnUse"
       id="clipPath2217"><path
         d="M 435.732,1177.271 L 447.088,1177.271 L 447.088,1165.915 L 435.732,1165.915 L 435.732,1177.271 z"
         id="path2219" /></clipPath><clipPath
       clipPathUnits="userSpaceOnUse"
       id="clipPath2239"><path
         d="M 518.176,707.533 L 529.532,707.533 L 529.532,696.177 L 518.176,696.177 L 518.176,707.533 z"
         id="path2241" /></clipPath><clipPath
       clipPathUnits="userSpaceOnUse"
       id="clipPath2261"><path
         d="M 718.876,631.85 L 730.233,631.85 L 730.233,620.494 L 718.876,620.494 L 718.876,631.85 z"
         id="path2263" /></clipPath><clipPath
       clipPathUnits="userSpaceOnUse"
       id="clipPath2279"><path
         d="M 703.313,627.037 L 714.67,627.037 L 714.67,615.681 L 703.313,615.681 L 703.313,627.037 z"
         id="path2281" /></clipPath><clipPath
       clipPathUnits="userSpaceOnUse"
       id="clipPath2297"><path
         d="M 687.938,622.162 L 699.295,622.162 L 699.295,610.806 L 687.938,610.806 L 687.938,622.162 z"
         id="path2299" /></clipPath><clipPath
       clipPathUnits="userSpaceOnUse"
       id="clipPath2393"><path
         d="M 230.916,858.567 L 242.273,858.567 L 242.273,847.211 L 230.916,847.211 L 230.916,858.567 z"
         id="path2395" /></clipPath><clipPath
       clipPathUnits="userSpaceOnUse"
       id="clipPath2411"><path
         d="M 89.397,496.471 L 100.753,496.471 L 100.753,485.114 L 89.397,485.114 L 89.397,496.471 z"
         id="path2413" /></clipPath><clipPath
       clipPathUnits="userSpaceOnUse"
       id="clipPath2429"><path
         d="M 508.368,593.52 L 519.724,593.52 L 519.724,582.163 L 508.368,582.163 L 508.368,593.52 z"
         id="path2431" /></clipPath><clipPath
       clipPathUnits="userSpaceOnUse"
       id="clipPath2455"><path
         d="M 592.784,597.538 L 604.14,597.538 L 604.14,586.182 L 592.784,586.182 L 592.784,597.538 z"
         id="path2457" /></clipPath><clipPath
       clipPathUnits="userSpaceOnUse"
       id="clipPath3321"><path
         d="M 206.513,677.942 L 218.335,677.942 L 218.335,666.12 L 206.513,666.12 L 206.513,677.942 z"
         id="path3323" /></clipPath><clipPath
       clipPathUnits="userSpaceOnUse"
       id="clipPath3339"><path
         d="M 173.107,678.42 L 184.928,678.42 L 184.928,666.598 L 173.107,666.598 L 173.107,678.42 z"
         id="path3341" /></clipPath><clipPath
       clipPathUnits="userSpaceOnUse"
       id="clipPath3357"><path
         d="M 179.247,627.067 L 191.069,627.067 L 191.069,615.246 L 179.247,615.246 L 179.247,627.067 z"
         id="path3359" /></clipPath><clipPath
       clipPathUnits="userSpaceOnUse"
       id="clipPath3375"><path
         d="M 106.843,553.706 L 118.664,553.706 L 118.664,541.884 L 106.843,541.884 L 106.843,553.706 z"
         id="path3377" /></clipPath><clipPath
       clipPathUnits="userSpaceOnUse"
       id="clipPath6547"><path
         d="M 178.025,1113.155 L 189.122,1113.155 L 189.122,1102.058 L 178.025,1102.058 L 178.025,1113.155 z"
         id="path6549" /></clipPath><clipPath
       clipPathUnits="userSpaceOnUse"
       id="clipPath6933"><path
         d="M 877.44,975.599 L 877.441,1214.111 L 668.13,1214.111 C 672.2,1212.253 675.41,1210.744 675.753,1210.609 C 749.672,1181.592 843.186,1083.518 877.44,975.599"
         id="path6935" /></clipPath><inkscape:perspective
       sodipodi:type="inkscape:persp3d"
       inkscape:vp_x="0 : 526.18109 : 1"
       inkscape:vp_y="0 : 1000 : 0"
       inkscape:vp_z="744.09448 : 526.18109 : 1"
       inkscape:persp3d-origin="372.04724 : 350.78739 : 1"
       id="perspective10" /><inkscape:perspective
       id="perspective3219"
       inkscape:persp3d-origin="372.04724 : 350.78739 : 1"
       inkscape:vp_z="744.09448 : 526.18109 : 1"
       inkscape:vp_y="0 : 1000 : 0"
       inkscape:vp_x="0 : 526.18109 : 1"
       sodipodi:type="inkscape:persp3d" /><inkscape:perspective
       id="perspective3277"
       inkscape:persp3d-origin="372.04724 : 350.78739 : 1"
       inkscape:vp_z="744.09448 : 526.18109 : 1"
       inkscape:vp_y="0 : 1000 : 0"
       inkscape:vp_x="0 : 526.18109 : 1"
       sodipodi:type="inkscape:persp3d" /><inkscape:perspective
       id="perspective3377"
       inkscape:persp3d-origin="372.04724 : 350.78739 : 1"
       inkscape:vp_z="744.09448 : 526.18109 : 1"
       inkscape:vp_y="0 : 1000 : 0"
       inkscape:vp_x="0 : 526.18109 : 1"
       sodipodi:type="inkscape:persp3d" /><inkscape:perspective
       id="perspective3478"
       inkscape:persp3d-origin="372.04724 : 350.78739 : 1"
       inkscape:vp_z="744.09448 : 526.18109 : 1"
       inkscape:vp_y="0 : 1000 : 0"
       inkscape:vp_x="0 : 526.18109 : 1"
       sodipodi:type="inkscape:persp3d" /><inkscape:perspective
       id="perspective2451"
       inkscape:persp3d-origin="372.04724 : 350.78739 : 1"
       inkscape:vp_z="744.09448 : 526.18109 : 1"
       inkscape:vp_y="0 : 1000 : 0"
       inkscape:vp_x="0 : 526.18109 : 1"
       sodipodi:type="inkscape:persp3d" /><clipPath
       id="clipPath11445"
       clipPathUnits="userSpaceOnUse"><path
         id="path11447"
         d="M 537.583,802.354 L 598.713,802.354 L 598.713,659.984 L 537.583,659.984 L 537.583,802.354 z" /></clipPath><mask
       id="mask11433"
       height="1"
       width="1"
       y="0"
       x="0"
       maskUnits="userSpaceOnUse"><g
         id="g11435"><g
           id="g11437"><g
             id="g11439"><g
               id="g11441"><path
                 id="path11443"
                 style="fill:url(#linearGradient11427);stroke:none"
                 d="M -32179,32767 L 32767,32767 L 32767,-31771.7 L -32179,-31771.7 L -32179,32767 z" /></g></g></g></g></mask><linearGradient
       id="linearGradient11427"
       spreadMethod="pad"
       gradientTransform="matrix(-56.692917,0,0,56.692917,595.27556,801.35434)"
       gradientUnits="userSpaceOnUse"
       y2="0"
       x2="1"
       y1="0"
       x1="0"><stop
         id="stop11429"
         offset="0"
         style="stop-opacity:1;stop-color:#ffffff" /><stop
         id="stop11431"
         offset="1"
         style="stop-opacity:0;stop-color:#ffffff" /></linearGradient><clipPath
       id="clipPath11419"
       clipPathUnits="userSpaceOnUse"><path
         id="path11421"
         d="M 537.583,802.354 L 598.713,802.354 L 598.713,659.984 L 537.583,659.984 L 537.583,802.354 z" /></clipPath><clipPath
       id="clipPath11393"
       clipPathUnits="userSpaceOnUse"><path
         id="path11395"
         d="M -11.9415,808.646 L 132.586,808.646 L 132.586,666.276 L -11.9415,666.276 L -11.9415,808.646 z" /></clipPath><mask
       id="mask11381"
       height="1"
       width="1"
       y="0"
       x="0"
       maskUnits="userSpaceOnUse"><g
         id="g11383"><g
           id="g11385"><g
             id="g11387"><g
               id="g11389"><path
                 id="path11391"
                 style="fill:url(#linearGradient11375);stroke:none"
                 d="M -32768,32767 L 32765.8,32767 L 32765.8,-32294.6 L -32768,-32294.6 L -32768,32767 z" /></g></g></g></g></mask><linearGradient
       id="linearGradient11375"
       spreadMethod="pad"
       gradientTransform="matrix(140.08995,0,0,-140.08995,-8.503952,667.2756)"
       gradientUnits="userSpaceOnUse"
       y2="0"
       x2="1"
       y1="0"
       x1="0"><stop
         id="stop11377"
         offset="0"
         style="stop-opacity:1;stop-color:#ffffff" /><stop
         id="stop11379"
         offset="1"
         style="stop-opacity:0;stop-color:#ffffff" /></linearGradient><clipPath
       id="clipPath11367"
       clipPathUnits="userSpaceOnUse"><path
         id="path11369"
         d="M -11.9415,808.646 L 132.586,808.646 L 132.586,666.276 L -11.9415,666.276 L -11.9415,808.646 z" /></clipPath><clipPath
       id="clipPath11359"
       clipPathUnits="userSpaceOnUse"><path
         id="path11361"
         d="M 0,0 L 595.276,0 L 595.276,935.433 L 0,935.433 L 0,0 z" /></clipPath><clipPath
       id="clipPath11347"
       clipPathUnits="userSpaceOnUse"><path
         id="path11349"
         d="M 364.063,801.355 L 542.835,801.355 L 542.835,935.433 L 364.063,935.433 L 364.063,801.355 z" /></clipPath><clipPath
       id="clipPath11335"
       clipPathUnits="userSpaceOnUse"><path
         id="path11337"
         d="M 182.053,801.355 L 360.781,801.355 L 360.781,935.433 L 182.053,935.433 L 182.053,801.355 z" /></clipPath><clipPath
       id="clipPath11323"
       clipPathUnits="userSpaceOnUse"><path
         id="path11325"
         d="M 0,801.355 L 178.771,801.355 L 178.771,935.433 L 0,935.433 L 0,801.355 z" /></clipPath><clipPath
       id="clipPath11307"
       clipPathUnits="userSpaceOnUse"><path
         id="path11309"
         d="M 0,0 L 595.276,0 L 595.276,935.433 L 0,935.433 L 0,0 z" /></clipPath><clipPath
       id="clipPath10459"
       clipPathUnits="userSpaceOnUse"><path
         id="path10461"
         d="M 107.717,409.28 L 542.835,409.28 L 542.835,759.684 L 107.717,759.684 L 107.717,409.28 z" /></clipPath><clipPath
       id="clipPath10309"
       clipPathUnits="userSpaceOnUse"><path
         id="path10311"
         d="M 110.007,672.01 L 110.007,459.066 C 129.456,458.969 235.309,459.102 235.309,459.102 L 235.309,459.102 L 235.309,462.632 L 219.748,462.632 L 219.748,473.541 L 226.967,473.541 L 226.967,470.814 L 244.294,470.814 L 244.294,467.123 L 241.567,467.123 L 241.567,463.755 L 245.899,463.755 L 249.91,460.545 L 249.268,457.497 L 270.927,457.497 L 270.927,466.322 L 276.543,466.322 L 276.543,461.187 L 286.811,461.187 L 286.811,468.408 L 294.351,468.408 L 294.351,463.113 L 300.497,463.113 L 300.497,469.851 L 309.381,477.515 L 312.642,477.515 L 312.642,471.713 L 317.615,471.713 L 317.615,477.355 L 320.985,479.478 L 330.932,479.478 L 328.365,475.466 L 324.674,475.466 L 324.674,472.579 L 330.29,472.579 L 335.103,478.996 L 342.323,478.996 L 342.323,475.628 L 333.659,467.123 L 331.895,469.21 L 326.6,469.21 L 326.6,467.123 L 330.611,467.123 L 330.611,463.915 L 314.086,463.915 L 314.086,467.123 L 309.433,467.123 L 309.433,464.878 L 311.358,464.878 L 311.519,463.273 L 304.619,454.609 L 295.154,454.609 L 286.33,446.908 L 261.462,446.908 L 243.171,437.281 L 246.059,431.986 L 262.103,440.971 L 289.057,440.971 L 297.721,448.833 L 306.064,448.833 L 315.53,457.817 L 330.45,457.817 C 330.45,457.817 331.573,459.583 333.82,459.262 L 333.82,459.262 C 336.065,458.941 340.879,459.743 342.162,461.187 L 342.162,461.187 C 343.446,462.632 345.853,463.594 346.815,463.594 L 346.815,463.594 C 347.778,463.594 351.308,463.273 353.875,466.803 L 353.875,466.803 C 356.441,470.333 359.811,475.788 367.512,475.788 L 367.512,475.788 L 372.164,475.788 L 372.164,470.814 L 374.411,470.814 L 374.411,475.466 C 374.411,475.466 375.854,477.392 376.978,476.429 L 376.978,476.429 C 378.101,475.466 377.941,474.504 379.706,475.788 L 379.706,475.788 C 381.47,477.071 383.396,477.874 383.556,476.429 L 383.556,476.429 C 383.716,474.986 383.556,473.221 383.556,473.221 L 383.556,473.221 L 380.187,473.221 L 380.187,470.974 L 383.556,470.974 L 383.556,467.765 L 372.646,467.765 L 372.646,465.84 L 388.048,465.84 L 388.048,478.034 L 428.8,478.034 C 428.8,478.034 433.131,476.59 441.634,476.59 L 441.634,476.59 L 460.887,476.59 L 460.887,494.765 L 464.577,494.765 L 464.577,476.59 L 540.898,476.59 L 540.898,672.01 L 110.007,672.01 z" /></clipPath><clipPath
       id="clipPath10295"
       clipPathUnits="userSpaceOnUse"><path
         id="path10297"
         d="M 101.353,127.817 L 118.507,127.817 L 118.507,135.691 L 101.353,135.691 L 101.353,127.817 z" /></clipPath><clipPath
       id="clipPath10287"
       clipPathUnits="userSpaceOnUse"><path
         id="path10289"
         d="M -32767,32767 L 32767,32767 L 32767,-32767 L -32767,-32767 L -32767,32767 z" /></clipPath><clipPath
       id="clipPath10271"
       clipPathUnits="userSpaceOnUse"><path
         id="path10273"
         d="M 103.651,133.406 C 103.352,133.406 103.089,133.143 103.089,132.844 L 103.089,132.844 L 103.089,130.394 C 103.089,130.094 103.352,129.831 103.651,129.831 L 103.651,129.831 L 115.94,129.831 C 116.24,129.831 116.502,130.094 116.502,130.394 L 116.502,130.394 L 116.502,132.844 C 116.502,133.143 116.24,133.406 115.94,133.406 L 115.94,133.406 L 103.651,133.406 z" /></clipPath><clipPath
       id="clipPath10263"
       clipPathUnits="userSpaceOnUse"><path
         id="path10265"
         d="M -32767,32767 L 32767,32767 L 32767,-32767 L -32767,-32767 L -32767,32767 z" /></clipPath><clipPath
       id="clipPath10253"
       clipPathUnits="userSpaceOnUse"><path
         id="path10255"
         d="M 107.717,409.28 L 542.835,409.28 L 542.835,759.684 L 107.717,759.684 L 107.717,409.28 z" /></clipPath><clipPath
       id="clipPath7609"
       clipPathUnits="userSpaceOnUse"><path
         id="path7611"
         d="M 110.007,672.01 L 110.007,459.066 C 129.456,458.969 235.309,459.102 235.309,459.102 L 235.309,459.102 L 235.309,462.632 L 219.748,462.632 L 219.748,473.541 L 226.967,473.541 L 226.967,470.814 L 244.294,470.814 L 244.294,467.123 L 241.567,467.123 L 241.567,463.755 L 245.899,463.755 L 249.91,460.545 L 249.268,457.497 L 270.927,457.497 L 270.927,466.322 L 276.543,466.322 L 276.543,461.187 L 286.811,461.187 L 286.811,468.408 L 294.351,468.408 L 294.351,463.113 L 300.497,463.113 L 300.497,469.851 L 309.381,477.515 L 312.642,477.515 L 312.642,471.713 L 317.615,471.713 L 317.615,477.355 L 320.985,479.478 L 330.932,479.478 L 328.365,475.466 L 324.674,475.466 L 324.674,472.579 L 330.29,472.579 L 335.103,478.996 L 342.323,478.996 L 342.323,475.628 L 333.659,467.123 L 331.895,469.21 L 326.6,469.21 L 326.6,467.123 L 330.611,467.123 L 330.611,463.915 L 314.086,463.915 L 314.086,467.123 L 309.433,467.123 L 309.433,464.878 L 311.358,464.878 L 311.519,463.273 L 304.619,454.609 L 295.154,454.609 L 286.33,446.908 L 261.462,446.908 L 243.171,437.281 L 246.059,431.986 L 262.103,440.971 L 289.057,440.971 L 297.721,448.833 L 306.064,448.833 L 315.53,457.817 L 330.45,457.817 C 330.45,457.817 331.573,459.583 333.82,459.262 L 333.82,459.262 C 336.065,458.941 340.879,459.743 342.162,461.187 L 342.162,461.187 C 343.446,462.632 345.853,463.594 346.815,463.594 L 346.815,463.594 C 347.778,463.594 351.308,463.273 353.875,466.803 L 353.875,466.803 C 356.441,470.333 359.811,475.788 367.512,475.788 L 367.512,475.788 L 372.164,475.788 L 372.164,470.814 L 374.411,470.814 L 374.411,475.466 C 374.411,475.466 375.854,477.392 376.978,476.429 L 376.978,476.429 C 378.101,475.466 377.941,474.504 379.706,475.788 L 379.706,475.788 C 381.47,477.071 383.396,477.874 383.556,476.429 L 383.556,476.429 C 383.716,474.986 383.556,473.221 383.556,473.221 L 383.556,473.221 L 380.187,473.221 L 380.187,470.974 L 383.556,470.974 L 383.556,467.765 L 372.646,467.765 L 372.646,465.84 L 388.048,465.84 L 388.048,478.034 L 428.8,478.034 C 428.8,478.034 433.131,476.59 441.634,476.59 L 441.634,476.59 L 460.887,476.59 L 460.887,494.765 L 464.577,494.765 L 464.577,476.59 L 540.898,476.59 L 540.898,672.01 L 110.007,672.01 z" /></clipPath><clipPath
       id="clipPath7597"
       clipPathUnits="userSpaceOnUse"><path
         id="path7599"
         d="M 336.575,641.143 L 339.811,641.143 L 339.811,644.379 L 336.575,644.379 L 336.575,641.143 z" /></clipPath><clipPath
       id="clipPath7563"
       clipPathUnits="userSpaceOnUse"><path
         id="path7565"
         d="M 110.007,672.01 L 110.007,459.066 C 129.456,458.969 235.309,459.102 235.309,459.102 L 235.309,459.102 L 235.309,462.632 L 219.748,462.632 L 219.748,473.541 L 226.967,473.541 L 226.967,470.814 L 244.294,470.814 L 244.294,467.123 L 241.567,467.123 L 241.567,463.755 L 245.899,463.755 L 249.91,460.545 L 249.268,457.497 L 270.927,457.497 L 270.927,466.322 L 276.543,466.322 L 276.543,461.187 L 286.811,461.187 L 286.811,468.408 L 294.351,468.408 L 294.351,463.113 L 300.497,463.113 L 300.497,469.851 L 309.381,477.515 L 312.642,477.515 L 312.642,471.713 L 317.615,471.713 L 317.615,477.355 L 320.985,479.478 L 330.932,479.478 L 328.365,475.466 L 324.674,475.466 L 324.674,472.579 L 330.29,472.579 L 335.103,478.996 L 342.323,478.996 L 342.323,475.628 L 333.659,467.123 L 331.895,469.21 L 326.6,469.21 L 326.6,467.123 L 330.611,467.123 L 330.611,463.915 L 314.086,463.915 L 314.086,467.123 L 309.433,467.123 L 309.433,464.878 L 311.358,464.878 L 311.519,463.273 L 304.619,454.609 L 295.154,454.609 L 286.33,446.908 L 261.462,446.908 L 243.171,437.281 L 246.059,431.986 L 262.103,440.971 L 289.057,440.971 L 297.721,448.833 L 306.064,448.833 L 315.53,457.817 L 330.45,457.817 C 330.45,457.817 331.573,459.583 333.82,459.262 L 333.82,459.262 C 336.065,458.941 340.879,459.743 342.162,461.187 L 342.162,461.187 C 343.446,462.632 345.853,463.594 346.815,463.594 L 346.815,463.594 C 347.778,463.594 351.308,463.273 353.875,466.803 L 353.875,466.803 C 356.441,470.333 359.811,475.788 367.512,475.788 L 367.512,475.788 L 372.164,475.788 L 372.164,470.814 L 374.411,470.814 L 374.411,475.466 C 374.411,475.466 375.854,477.392 376.978,476.429 L 376.978,476.429 C 378.101,475.466 377.941,474.504 379.706,475.788 L 379.706,475.788 C 381.47,477.071 383.396,477.874 383.556,476.429 L 383.556,476.429 C 383.716,474.986 383.556,473.221 383.556,473.221 L 383.556,473.221 L 380.187,473.221 L 380.187,470.974 L 383.556,470.974 L 383.556,467.765 L 372.646,467.765 L 372.646,465.84 L 388.048,465.84 L 388.048,478.034 L 428.8,478.034 C 428.8,478.034 433.131,476.59 441.634,476.59 L 441.634,476.59 L 460.887,476.59 L 460.887,494.765 L 464.577,494.765 L 464.577,476.59 L 540.898,476.59 L 540.898,672.01 L 110.007,672.01 z" /></clipPath><clipPath
       id="clipPath7551"
       clipPathUnits="userSpaceOnUse"><path
         id="path7553"
         d="M 310.999,647.127 L 314.235,647.127 L 314.235,650.363 L 310.999,650.363 L 310.999,647.127 z" /></clipPath><clipPath
       id="clipPath5343"
       clipPathUnits="userSpaceOnUse"><path
         id="path5345"
         d="M 110.007,672.01 L 110.007,459.066 C 129.456,458.969 235.309,459.102 235.309,459.102 L 235.309,459.102 L 235.309,462.632 L 219.748,462.632 L 219.748,473.541 L 226.967,473.541 L 226.967,470.814 L 244.294,470.814 L 244.294,467.123 L 241.567,467.123 L 241.567,463.755 L 245.899,463.755 L 249.91,460.545 L 249.268,457.497 L 270.927,457.497 L 270.927,466.322 L 276.543,466.322 L 276.543,461.187 L 286.811,461.187 L 286.811,468.408 L 294.351,468.408 L 294.351,463.113 L 300.497,463.113 L 300.497,469.851 L 309.381,477.515 L 312.642,477.515 L 312.642,471.713 L 317.615,471.713 L 317.615,477.355 L 320.985,479.478 L 330.932,479.478 L 328.365,475.466 L 324.674,475.466 L 324.674,472.579 L 330.29,472.579 L 335.103,478.996 L 342.323,478.996 L 342.323,475.628 L 333.659,467.123 L 331.895,469.21 L 326.6,469.21 L 326.6,467.123 L 330.611,467.123 L 330.611,463.915 L 314.086,463.915 L 314.086,467.123 L 309.433,467.123 L 309.433,464.878 L 311.358,464.878 L 311.519,463.273 L 304.619,454.609 L 295.154,454.609 L 286.33,446.908 L 261.462,446.908 L 243.171,437.281 L 246.059,431.986 L 262.103,440.971 L 289.057,440.971 L 297.721,448.833 L 306.064,448.833 L 315.53,457.817 L 330.45,457.817 C 330.45,457.817 331.573,459.583 333.82,459.262 L 333.82,459.262 C 336.065,458.941 340.879,459.743 342.162,461.187 L 342.162,461.187 C 343.446,462.632 345.853,463.594 346.815,463.594 L 346.815,463.594 C 347.778,463.594 351.308,463.273 353.875,466.803 L 353.875,466.803 C 356.441,470.333 359.811,475.788 367.512,475.788 L 367.512,475.788 L 372.164,475.788 L 372.164,470.814 L 374.411,470.814 L 374.411,475.466 C 374.411,475.466 375.854,477.392 376.978,476.429 L 376.978,476.429 C 378.101,475.466 377.941,474.504 379.706,475.788 L 379.706,475.788 C 381.47,477.071 383.396,477.874 383.556,476.429 L 383.556,476.429 C 383.716,474.986 383.556,473.221 383.556,473.221 L 383.556,473.221 L 380.187,473.221 L 380.187,470.974 L 383.556,470.974 L 383.556,467.765 L 372.646,467.765 L 372.646,465.84 L 388.048,465.84 L 388.048,478.034 L 428.8,478.034 C 428.8,478.034 433.131,476.59 441.634,476.59 L 441.634,476.59 L 460.887,476.59 L 460.887,494.765 L 464.577,494.765 L 464.577,476.59 L 540.898,476.59 L 540.898,672.01 L 110.007,672.01 z" /></clipPath><clipPath
       id="clipPath5329"
       clipPathUnits="userSpaceOnUse"><path
         id="path5331"
         d="M 1.836,204.327 L 1.836,38.788 C 17.128,38.712 99.408,38.816 99.408,38.816 L 99.408,38.816 L 99.408,41.566 L 87.283,41.566 L 87.283,50.066 L 92.908,50.066 L 92.908,47.941 L 106.408,47.941 L 106.408,45.066 L 104.283,45.066 L 104.283,42.44 L 107.658,42.44 L 110.783,39.941 L 110.282,37.566 L 127.157,37.566 L 127.157,44.441 L 131.532,44.441 L 131.532,40.441 L 139.532,40.441 L 139.532,46.066 L 145.407,46.066 L 145.407,41.941 L 150.196,41.941 L 150.196,47.191 L 157.117,53.161 L 159.657,53.161 L 159.657,48.641 L 163.532,48.641 L 163.532,53.037 L 166.157,54.691 L 173.907,54.691 L 171.907,51.566 L 169.032,51.566 L 169.032,49.316 L 173.407,49.316 L 177.157,54.316 L 182.782,54.316 L 182.782,51.691 L 176.032,45.066 L 174.657,46.691 L 170.532,46.691 L 170.532,45.066 L 173.657,45.066 L 173.657,42.566 L 160.782,42.566 L 160.782,45.066 L 157.157,45.066 L 157.157,43.316 L 158.656,43.316 L 158.782,42.066 L 153.407,35.316 L 146.032,35.316 L 139.157,29.316 L 119.783,29.316 L 105.533,21.815 L 107.782,17.69 L 120.282,24.691 L 141.282,24.691 L 148.032,30.816 L 154.532,30.816 L 161.907,37.815 L 173.532,37.815 C 173.532,37.815 174.406,39.191 176.157,38.94 L 176.157,38.94 C 177.907,38.691 181.657,39.316 182.657,40.441 L 182.657,40.441 C 183.657,41.566 185.531,42.316 186.281,42.316 L 186.281,42.316 C 187.032,42.316 189.781,42.066 191.781,44.816 L 191.781,44.816 C 193.781,47.566 196.406,51.816 202.406,51.816 L 202.406,51.816 L 206.032,51.816 L 206.032,47.941 L 207.781,47.941 L 207.781,51.566 C 207.781,51.566 208.906,53.066 209.781,52.316 L 209.781,52.316 C 210.656,51.566 210.531,50.816 211.906,51.816 L 211.906,51.816 C 213.281,52.816 214.781,53.441 214.906,52.316 L 214.906,52.316 C 215.031,51.191 214.906,49.816 214.906,49.816 L 214.906,49.816 L 212.281,49.816 L 212.281,48.065 L 214.906,48.065 L 214.906,45.566 L 206.406,45.566 L 206.406,44.066 L 218.406,44.066 L 218.406,53.566 L 250.156,53.566 C 250.156,53.566 253.531,52.441 260.155,52.441 L 260.155,52.441 L 275.155,52.441 L 275.155,66.601 L 278.03,66.601 L 278.03,52.441 L 337.491,52.441 L 337.491,204.327 L 1.836,204.327 z" /></clipPath><clipPath
       id="clipPath5321"
       clipPathUnits="userSpaceOnUse"><path
         id="path5323"
         d="M -32767,32767 L 32767,32767 L 32767,-32767 L -32767,-32767 L -32767,32767 z" /></clipPath><clipPath
       id="clipPath5159"
       clipPathUnits="userSpaceOnUse"><path
         id="path5161"
         d="M 101.351,127.816 L 118.504,127.816 L 118.504,135.69 L 101.351,135.69 L 101.351,127.816 z" /></clipPath><clipPath
       id="clipPath5151"
       clipPathUnits="userSpaceOnUse"><path
         id="path5153"
         d="M -32767,32767 L 32767,32767 L 32767,-32767 L -32767,-32767 L -32767,32767 z" /></clipPath><clipPath
       id="clipPath5135"
       clipPathUnits="userSpaceOnUse"><path
         id="path5137"
         d="M 103.651,133.406 C 103.352,133.406 103.089,133.143 103.089,132.844 L 103.089,132.844 L 103.089,130.394 C 103.089,130.094 103.352,129.831 103.651,129.831 L 103.651,129.831 L 115.94,129.831 C 116.24,129.831 116.502,130.094 116.502,130.394 L 116.502,130.394 L 116.502,132.844 C 116.502,133.143 116.24,133.406 115.94,133.406 L 115.94,133.406 L 103.651,133.406 z" /></clipPath><clipPath
       id="clipPath5127"
       clipPathUnits="userSpaceOnUse"><path
         id="path5129"
         d="M -32767,32767 L 32767,32767 L 32767,-32767 L -32767,-32767 L -32767,32767 z" /></clipPath><clipPath
       id="clipPath2481"
       clipPathUnits="userSpaceOnUse"><path
         id="path9242"
         d="M 107.717,409.28 L 542.835,409.28 L 542.835,759.684 L 107.717,759.684 L 107.717,409.28 z" /></clipPath><clipPath
       id="clipPath2469"
       clipPathUnits="userSpaceOnUse"><path
         id="path2471"
         d="M 336.575,641.143 L 339.811,641.143 L 339.811,644.379 L 336.575,644.379 L 336.575,641.143 z" /></clipPath><clipPath
       id="clipPath2435"
       clipPathUnits="userSpaceOnUse"><path
         id="path2437"
         d="M 107.717,409.28 L 542.835,409.28 L 542.835,759.684 L 107.717,759.684 L 107.717,409.28 z" /></clipPath><clipPath
       id="clipPath2423"
       clipPathUnits="userSpaceOnUse"><path
         id="path2425"
         d="M 310.999,647.127 L 314.235,647.127 L 314.235,650.363 L 310.999,650.363 L 310.999,647.127 z" /></clipPath><clipPath
       id="clipPath167"
       clipPathUnits="userSpaceOnUse"><path
         id="path9233"
         d="M 107.717,409.28 L 542.835,409.28 L 542.835,759.684 L 107.717,759.684 L 107.717,409.28 z" /></clipPath><clipPath
       id="clipPath137"
       clipPathUnits="userSpaceOnUse"><path
         id="path139"
         d="M 1.794,0.563 L 337.67,0.563 L 337.67,204.327 L 1.794,204.327 L 1.794,0.563 z" /></clipPath><clipPath
       id="clipPath129"
       clipPathUnits="userSpaceOnUse"><path
         id="path131"
         d="M -32767,32767 L 32767,32767 L 32767,-32767 L -32767,-32767 L -32767,32767 z" /></clipPath><clipPath
       id="clipPath113"
       clipPathUnits="userSpaceOnUse"><path
         id="path115"
         d="M 107.717,409.28 L 542.835,409.28 L 542.835,759.684 L 107.717,759.684 L 107.717,409.28 z" /></clipPath><clipPath
       id="clipPath17"
       clipPathUnits="userSpaceOnUse"><path
         id="path19"
         d="M 0,0 L 595.276,0 L 595.276,935.433 L 0,935.433 L 0,0 z" /></clipPath><inkscape:perspective
       id="perspective9222"
       inkscape:persp3d-origin="372.04724 : 350.78739 : 1"
       inkscape:vp_z="744.09448 : 526.18109 : 1"
       inkscape:vp_y="0 : 1000 : 0"
       inkscape:vp_x="0 : 526.18109 : 1"
       sodipodi:type="inkscape:persp3d" /></defs><sodipodi:namedview
     inkscape:window-height="752"
     inkscape:window-width="1280"
     inkscape:pageshadow="2"
     inkscape:pageopacity="0.0"
     guidetolerance="10.0"
     gridtolerance="10.0"
     objecttolerance="10.0"
     borderopacity="1.0"
     bordercolor="#666666"
     pagecolor="#ffffff"
     id="base"
     showgrid="false"
     inkscape:zoom="11.676781"
     inkscape:cx="23.005565"
     inkscape:cy="22.994349"
     inkscape:window-x="0"
     inkscape:window-y="0"
     inkscape:current-layer="g11" /><g
     id="g11"
     inkscape:groupmode="layer"
     inkscape:label="genplano"
     transform="matrix(0,-1.25,-1.25,0,1224.3556,-446.92831)">






























































































































































































































































































































































































































































































































































































<g
   id="g6061"
   transform="matrix(4.7376891,0,0,4.6163303,-357.88635,979.13842)"><path
     d="M -7.62,0 L -0.0005,0 L -0.0005,-7.8237 L -7.62,-7.8237 L -7.62,0 z"
     style="fill:#007cc2;fill-opacity:1;fill-rule:nonzero;stroke:#0089c7;stroke-width:0.148;stroke-linecap:butt;stroke-linejoin:miter;stroke-miterlimit:3.86400008;stroke-dasharray:none;stroke-opacity:1"
     id="path6063" /></g><g
   id="g6065"
   transform="matrix(4.7376891,0,0,4.6163303,-384.11893,950.88186)"><path
     d="M 0,0 L 0,5.162 L 0.203,5.365 L 2.011,5.365 L 2.22,5.155 L 2.22,4.71 L 2.613,4.317 L 2.613,0.817 L 2.384,0.423 L 2.384,-0.021 L 2.174,-0.232 L 0.203,-0.232 L 0,0 z"
     style="fill:#ffffff;fill-opacity:1;fill-rule:nonzero;stroke:#ffffff;stroke-width:0.097;stroke-linecap:butt;stroke-linejoin:miter;stroke-miterlimit:3.86400008;stroke-dasharray:none;stroke-opacity:1"
     id="path6067" /></g><g
   id="g6069"
   transform="matrix(4.7376891,0,0,4.6163303,-366.21047,975.10375)"><path
     d="M 0,0 L -0.327,-0.64 L -1.365,-2.7"
     style="fill:none;stroke:#ffffff;stroke-width:0.29100001;stroke-linecap:butt;stroke-linejoin:miter;stroke-miterlimit:3.86400008;stroke-dasharray:none;stroke-opacity:1"
     id="path6071" /></g><g
   id="g6073"
   transform="matrix(4.7376891,0,0,4.6163303,-375.45844,971.04599)"><path
     d="M -0.393,0 L 0.00028,0 L 0.00028,-0.94153 L -0.393,-0.94153 L -0.393,0 z"
     style="fill:#0089c7;fill-opacity:1;fill-rule:nonzero;stroke:#0089c7;stroke-width:0.097;stroke-linecap:butt;stroke-linejoin:miter;stroke-miterlimit:3.86400008;stroke-dasharray:none;stroke-opacity:1"
     id="path6075" /></g><g
   id="g6077"
   transform="matrix(4.7376891,0,0,4.6163303,-375.45844,964.88319)"><path
     d="M -0.393,0 L 0.00028,0 L 0.00028,-0.94177 L -0.393,-0.94177 L -0.393,0 z"
     style="fill:#0089c7;fill-opacity:1;fill-rule:nonzero;stroke:#0089c7;stroke-width:0.097;stroke-linecap:butt;stroke-linejoin:miter;stroke-miterlimit:3.86400008;stroke-dasharray:none;stroke-opacity:1"
     id="path6079" /></g><g
   id="g6081"
   transform="matrix(4.7376891,0,0,4.6163303,-375.45844,958.71578)"><path
     d="M -0.393,0 L 0.00028,0 L 0.00028,-0.94293 L -0.393,-0.94293 L -0.393,0 z"
     style="fill:#0089c7;fill-opacity:1;fill-rule:nonzero;stroke:#0089c7;stroke-width:0.097;stroke-linecap:butt;stroke-linejoin:miter;stroke-miterlimit:3.86400008;stroke-dasharray:none;stroke-opacity:1"
     id="path6083" /></g><g
   id="g6085"
   transform="matrix(4.7376891,0,0,4.6163303,-375.45844,974.439)"><path
     d="M -1.285,0 L -0.0002,0 L -0.0002,-0.49847 L -1.285,-0.49847 L -1.285,0 z"
     style="fill:#0089c7;fill-opacity:1;fill-rule:nonzero;stroke:#0089c7;stroke-width:0.097;stroke-linecap:butt;stroke-linejoin:miter;stroke-miterlimit:3.86400008;stroke-dasharray:none;stroke-opacity:1"
     id="path6087" /></g><g
   id="g6089"
   transform="matrix(4.7376891,0,0,4.6163303,-374.34982,953.12078)"><path
     d="M -1.284,0 L -0.0001,0 L -0.0001,-0.49872 L -1.284,-0.49872 L -1.284,0 z"
     style="fill:#0089c7;fill-opacity:1;fill-rule:nonzero;stroke:#0089c7;stroke-width:0.097;stroke-linecap:butt;stroke-linejoin:miter;stroke-miterlimit:3.86400008;stroke-dasharray:none;stroke-opacity:1"
     id="path6091" /></g><g
   id="g6097"
   transform="matrix(4.7376891,0,0,4.6163303,-382.87766,971.52609)"><path
     d="M 0,0 C 0.286,0 0.52,-0.232 0.52,-0.52 C 0.52,-0.808 0.286,-1.04 0,-1.04 C -0.289,-1.04 -0.522,-0.808 -0.522,-0.52 C -0.522,-0.232 -0.289,0 0,0 z"
     style="fill:#ffffff;fill-opacity:1;fill-rule:nonzero;stroke:#ffffff;stroke-width:0.097;stroke-linecap:butt;stroke-linejoin:miter;stroke-miterlimit:3.86400008;stroke-dasharray:none;stroke-opacity:1"
     id="path6099" /></g><g
   id="g6101"
   transform="matrix(4.7376891,0,0,4.6163303,-382.87766,958.42956)"><path
     d="M 0,0 C 0.286,0 0.52,-0.233 0.52,-0.521 C 0.52,-0.808 0.286,-1.042 0,-1.042 C -0.289,-1.042 -0.522,-0.808 -0.522,-0.521 C -0.522,-0.233 -0.289,0 0,0 z"
     style="fill:#ffffff;fill-opacity:1;fill-rule:nonzero;stroke:#ffffff;stroke-width:0.097;stroke-linecap:butt;stroke-linejoin:miter;stroke-miterlimit:3.86400008;stroke-dasharray:none;stroke-opacity:1"
     id="path6103" /></g><g
   id="g6105"
   transform="matrix(4.7376891,0,0,4.6163303,-380.76939,949.9309)"><path
     d="M -0.527,0 L -0.00011,0 L -0.00011,-0.13287 L -0.527,-0.13287 L -0.527,0 z"
     style="fill:#ffffff;fill-opacity:1;fill-rule:nonzero;stroke:#ffffff;stroke-width:0.097;stroke-linecap:butt;stroke-linejoin:miter;stroke-miterlimit:3.86400008;stroke-dasharray:none;stroke-opacity:1"
     id="path6107" /></g><g
   id="g6109"
   transform="matrix(4.7376891,0,0,4.6163303,-381.59375,949.5339)"><path
     d="M -0.176,0 L 0.00024,0 L 0.00024,-0.13293 L -0.176,-0.13293 L -0.176,0 z"
     style="fill:#ffffff;fill-opacity:1;fill-rule:nonzero;stroke:#ffffff;stroke-width:0.097;stroke-linecap:butt;stroke-linejoin:miter;stroke-miterlimit:3.86400008;stroke-dasharray:none;stroke-opacity:1"
     id="path6111" /></g>







































































</g></svg>